<?xml version="1.0" standalone="no"?>
<!DOCTYPE svg PUBLIC "-//W3C//DTD SVG 20010904//EN"
 "http://www.w3.org/TR/2001/REC-SVG-20010904/DTD/svg10.dtd">
<svg version="1.0" xmlns="http://www.w3.org/2000/svg"
 width="700.000000pt" height="700.000000pt" viewBox="0 0 700.000000 700.000000"
 preserveAspectRatio="xMidYMid meet">
<metadata>
Created by potrace 1.14, written by Peter Selinger 2001-2017
</metadata>
<g transform="translate(0.000000,700.000000) scale(0.100000,-0.100000)"
fill="#000000" stroke="none">
<path d="M3146 6882 c-3 -5 1 -9 9 -9 8 0 12 4 9 9 -3 4 -7 8 -9 8 -2 0 -6 -4
-9 -8z"/>
<path d="M3301 6864 c13 -17 26 -30 28 -27 3 2 -8 16 -24 31 l-28 27 24 -31z"/>
<path d="M3339 6873 c-13 -17 -13 -17 6 -3 11 8 22 16 24 17 2 2 0 3 -6 3 -6
0 -17 -8 -24 -17z"/>
<path d="M3550 6880 c0 -5 5 -10 11 -10 5 0 7 5 4 10 -3 6 -8 10 -11 10 -2 0
-4 -4 -4 -10z"/>
<path d="M3676 6868 c-8 -12 -13 -25 -10 -30 5 -7 -10 -12 -30 -9 -4 1 -15 -4
-24 -11 -9 -7 -13 -8 -9 -2 4 7 -3 12 -18 12 -14 0 -28 -5 -31 -9 -3 -5 -11
-6 -17 -2 -20 12 -68 13 -61 1 5 -7 2 -8 -7 -3 -18 12 -69 14 -75 3 -3 -5 -12
-3 -21 3 -12 10 -16 10 -23 -1 -7 -12 -13 -10 -33 8 -28 27 -33 27 -39 4 -5
-18 -48 -29 -48 -12 0 5 8 7 18 5 11 -2 19 3 19 10 0 8 -5 11 -10 8 -7 -4 -8
1 -4 13 6 14 2 13 -14 -6 -13 -16 -22 -21 -25 -13 -4 8 -10 7 -23 -5 -10 -9
-16 -20 -15 -23 2 -3 -12 -4 -31 -2 -23 2 -35 -1 -35 -8 0 -21 -13 0 -15 23
-1 12 -9 22 -19 24 -14 2 -15 0 -5 -12 10 -12 9 -13 -5 -8 -18 7 -22 -11 -4
-22 7 -4 8 -3 4 4 -5 8 -2 10 8 6 22 -8 10 -24 -15 -21 -24 4 -50 27 -29 27 7
0 10 3 7 7 -4 3 -15 -2 -26 -11 -11 -10 -22 -13 -25 -8 -3 6 1 12 9 16 8 3 15
10 15 16 0 7 -7 5 -15 -4 -9 -8 -23 -12 -33 -9 -13 4 -13 2 3 -10 20 -16 19
-16 -8 -15 -20 2 -26 7 -22 18 4 13 4 13 -7 0 -8 -10 -26 -15 -46 -14 -18 1
-35 -2 -38 -7 -3 -5 -9 -7 -14 -4 -4 3 -7 -2 -6 -10 3 -18 21 -21 21 -3 0 6 6
13 14 16 8 3 11 0 7 -6 -3 -6 -1 -14 5 -18 8 -4 9 -3 5 4 -4 7 -3 12 2 12 6 0
12 -6 15 -14 4 -11 -1 -13 -19 -10 -14 3 -23 1 -20 -4 3 -5 -7 -8 -22 -7 -15
1 -33 -2 -39 -8 -7 -5 -13 -6 -13 -1 0 5 -4 3 -9 -4 -7 -11 -9 -10 -14 3 -4 9
-3 14 1 11 5 -3 9 1 9 9 0 17 -16 21 -18 5 -1 -5 -2 -16 -3 -22 -1 -7 -10 -12
-20 -10 -10 2 -16 0 -13 -5 3 -5 -2 -9 -11 -10 -15 -1 -49 -9 -62 -13 -3 -1
-9 -3 -15 -5 -5 -1 -13 -3 -17 -5 -5 -1 -16 -3 -26 -4 -11 0 -27 -8 -37 -16
-11 -8 -16 -10 -13 -5 3 6 -5 24 -19 40 -16 20 -21 23 -14 8 7 -13 7 -24 2
-27 -5 -4 -11 0 -14 6 -3 9 -11 4 -25 -12 -18 -21 -23 -23 -31 -10 -9 12 -13
11 -34 -8 -13 -12 -29 -22 -35 -22 -7 0 -12 -5 -12 -10 0 -7 6 -7 19 0 15 7
22 7 27 -2 4 -7 3 -10 -1 -5 -5 4 -19 0 -32 -8 -13 -9 -24 -13 -24 -10 -5 20
-4 32 4 43 13 17 -1 15 -19 -3 -9 -8 -12 -15 -7 -15 5 0 9 -9 10 -20 1 -11 -3
-20 -8 -20 -6 0 -8 3 -5 8 2 4 -2 16 -10 26 -12 18 -13 17 -10 -12 4 -25 1
-30 -11 -25 -12 5 -14 3 -8 -7 5 -9 4 -11 -3 -6 -7 4 -12 1 -12 -6 0 -11 -2
-11 -9 0 -4 7 -18 14 -29 15 -27 2 -27 6 -4 24 15 13 15 13 -5 4 -12 -7 -21
-19 -20 -31 1 -15 4 -17 16 -7 12 10 13 9 6 -2 -6 -11 -4 -13 9 -8 11 4 15 3
11 -4 -4 -5 -12 -8 -18 -6 -7 2 -21 -3 -32 -12 -18 -15 -19 -15 -6 2 12 15 11
17 -10 14 -12 -2 -25 -10 -27 -18 -3 -11 -1 -11 7 1 7 9 11 10 11 3 0 -16 -15
-24 -33 -17 -14 5 -14 8 1 24 17 21 26 53 11 44 -5 -3 -7 -9 -4 -14 3 -4 -2
-13 -10 -20 -14 -12 -19 -7 -16 13 1 5 -3 6 -9 2 -8 -5 -8 -11 0 -20 7 -9 7
-15 -2 -22 -16 -11 -60 -15 -54 -4 3 4 -1 8 -9 8 -11 0 -12 -4 -4 -13 7 -8 6
-13 -3 -16 -8 -3 -6 -7 6 -11 11 -5 15 -3 10 5 -4 6 -3 8 4 4 5 -3 13 0 15 6
4 10 6 9 6 -1 1 -11 4 -11 16 -1 13 11 14 10 9 -4 -4 -10 -13 -15 -20 -12 -8
3 -14 2 -14 -2 0 -4 -9 -13 -20 -19 -14 -9 -21 -10 -26 -1 -5 7 -3 8 6 3 8 -5
11 -4 6 3 -4 6 -14 8 -23 5 -12 -5 -14 -3 -7 8 12 19 14 38 4 44 -4 2 -7 -5
-6 -18 1 -13 -4 -21 -11 -19 -19 3 -16 -7 10 -30 12 -11 15 -16 7 -11 -8 4
-18 8 -22 9 -5 1 -9 2 -10 4 -10 7 -38 7 -38 -1 0 -5 5 -10 10 -10 6 -1 15 -3
20 -4 6 -1 15 -3 22 -4 6 0 3 -7 -8 -15 -16 -13 -21 -13 -35 0 -9 8 -19 11
-22 7 -4 -3 -7 -1 -7 5 0 7 -5 12 -11 12 -8 0 -8 -5 1 -15 7 -8 17 -12 23 -8
6 3 7 1 3 -5 -4 -7 -18 -12 -32 -12 -24 0 -94 -39 -94 -52 0 -4 16 4 36 17 20
14 41 25 46 25 14 0 4 -25 -10 -26 -7 -1 -19 -2 -27 -3 -8 0 -14 -4 -13 -8 2
-5 -1 -9 -6 -10 -5 -1 -13 -7 -17 -15 -6 -9 -9 -10 -9 -1 0 7 -7 10 -17 7 -15
-5 -15 -4 -4 4 12 9 12 13 2 26 -15 18 -31 21 -31 6 0 -6 3 -9 8 -9 19 3 23
-2 12 -16 -11 -13 -15 -13 -21 -3 -7 10 -9 10 -9 -1 0 -11 -3 -11 -17 0 -15
12 -16 12 -8 -1 5 -8 10 -21 11 -27 3 -15 -13 -17 -18 -3 -2 6 -9 1 -15 -9 -9
-15 -10 -22 -1 -27 7 -5 8 -3 3 6 -6 9 -4 11 5 5 9 -5 11 -4 6 3 -4 8 -2 10 7
6 8 -3 18 0 22 5 3 6 11 8 17 5 6 -4 8 -2 4 4 -3 6 -2 13 4 17 17 10 11 -22
-7 -36 -9 -8 -18 -13 -20 -11 -9 6 -23 1 -18 -7 3 -6 -6 -8 -20 -5 -20 3 -23
1 -18 -13 9 -25 -3 -13 -20 20 -11 21 -16 24 -20 12 -4 -8 -2 -15 4 -15 6 0 7
-5 3 -12 -4 -6 -3 -8 4 -4 6 3 9 -1 8 -10 -3 -21 -62 -58 -71 -44 -8 12 2 30
17 30 6 0 5 -7 -3 -17 -13 -15 -12 -15 8 -2 14 8 18 16 11 20 -7 4 -6 8 3 11
8 3 10 9 6 14 -4 5 -12 2 -16 -5 -5 -8 -14 -10 -21 -6 -9 5 -11 4 -6 -3 4 -7
2 -12 -4 -12 -6 0 -10 -10 -8 -22 3 -25 -29 -71 -44 -62 -4 3 -8 0 -8 -6 0 -7
-7 -9 -16 -6 -12 5 -15 2 -10 -11 4 -11 -1 -8 -13 7 -11 14 -23 21 -27 17 -4
-4 -3 -7 3 -7 6 0 13 -9 16 -21 5 -20 5 -20 -15 -2 -20 18 -21 18 -11 -2 9
-17 5 -25 -21 -51 l-31 -31 -1 24 c-2 18 2 23 13 19 9 -4 11 -2 7 6 -5 7 -3 8
6 3 9 -5 11 -4 6 3 -5 8 -1 10 11 5 15 -6 16 -5 3 9 -13 14 -16 14 -23 2 -5
-8 -12 -12 -18 -9 -5 4 -9 1 -9 -4 0 -6 -9 -20 -20 -31 -22 -22 -13 -28 10 -7
12 10 12 9 1 -5 -7 -9 -9 -23 -5 -30 4 -7 4 -10 0 -7 -4 4 -19 -4 -33 -17 -14
-13 -29 -21 -34 -18 -5 3 -9 -1 -9 -8 0 -7 -13 -22 -29 -33 -16 -10 -29 -24
-28 -29 1 -6 -5 -10 -13 -11 -8 -1 -14 -7 -12 -14 1 -7 -2 -10 -8 -6 -5 3 -10
3 -10 -2 -1 -4 -17 -26 -36 -48 -19 -22 -32 -31 -28 -20 7 18 6 19 -10 6 -9
-8 -15 -20 -12 -28 3 -8 2 -12 -3 -8 -5 3 -19 -11 -31 -30 -12 -19 -27 -34
-33 -32 -7 1 -11 -4 -9 -11 1 -6 -4 -11 -10 -10 -7 2 -12 -2 -11 -9 4 -18 -30
-34 -48 -22 -7 5 -18 9 -24 9 -5 0 -3 -5 5 -10 22 -13 21 -49 -2 -61 -10 -5
-16 -14 -13 -19 3 -6 -1 -7 -10 -4 -10 4 -15 2 -13 -7 2 -9 -6 -14 -22 -14
-14 1 -29 -5 -33 -12 -5 -8 -13 -10 -19 -7 -7 4 -8 2 -4 -5 6 -9 11 -9 21 -1
8 7 20 8 26 4 8 -4 9 -3 5 4 -5 8 -2 10 9 6 14 -6 14 -8 -2 -19 -10 -7 -22
-11 -26 -8 -5 3 -7 -1 -6 -8 3 -17 -11 -49 -20 -49 -4 0 -8 7 -8 15 0 8 3 12
7 10 4 -2 7 2 7 10 0 8 -6 16 -13 19 -9 3 -11 -1 -7 -11 5 -12 3 -14 -7 -8 -9
6 -11 4 -5 -6 12 -19 14 -49 3 -49 -5 0 -6 -4 -3 -10 3 -6 -1 -7 -10 -3 -12 4
-13 8 -5 13 8 5 6 9 -6 14 -9 3 -19 4 -22 1 -3 -3 1 -5 8 -5 7 0 10 -3 7 -6
-3 -4 -2 -15 4 -25 6 -13 6 -19 -1 -19 -5 0 -9 -6 -8 -12 2 -7 -5 -12 -14 -10
-20 3 -24 -14 -5 -21 10 -4 10 -6 0 -6 -7 -1 -13 -8 -13 -16 0 -8 -5 -15 -11
-15 -5 0 -7 -4 -4 -10 3 -5 0 -7 -9 -4 -11 4 -14 0 -11 -15 2 -12 1 -20 -3
-17 -11 6 -29 -18 -26 -36 1 -9 -4 -19 -12 -22 -12 -5 -12 -2 -3 17 6 12 8 19
4 15 -5 -4 -15 -2 -23 5 -11 8 -14 8 -9 0 4 -6 3 -13 -2 -15 -5 -1 -11 -10
-13 -18 -2 -8 -12 -22 -23 -31 -20 -17 -20 -17 0 -40 11 -12 14 -19 8 -15 -15
8 -17 -6 -4 -19 14 -15 -24 -56 -54 -60 -15 -1 -32 -8 -38 -14 -9 -9 -8 -11 7
-5 12 4 17 4 13 -2 -3 -6 -2 -16 3 -24 10 -16 -5 -50 -22 -50 -6 0 -5 6 3 17
8 10 9 14 2 10 -6 -4 -14 -3 -18 3 -8 13 -25 3 -25 -13 0 -8 3 -8 9 2 5 8 11
9 15 3 3 -6 -4 -18 -16 -26 -12 -9 -17 -16 -11 -16 6 0 13 -9 16 -20 4 -15 0
-20 -14 -20 -10 0 -19 -4 -19 -9 0 -6 10 -8 21 -6 21 4 21 4 4 -15 -10 -11
-15 -20 -10 -20 4 0 2 -6 -4 -13 -6 -8 -7 -17 -3 -22 4 -4 -2 -3 -14 3 -12 7
-26 7 -35 1 -7 -5 -10 -9 -5 -9 5 0 3 -6 -3 -13 -6 -8 -8 -17 -4 -20 3 -4 0
-13 -6 -21 -7 -8 -10 -20 -7 -25 4 -5 2 -12 -4 -16 -5 -3 -10 2 -11 12 0 11
-3 13 -6 5 -3 -7 1 -19 7 -27 14 -17 0 -21 -16 -5 -7 7 -11 6 -11 -3 0 -13 10
-14 52 -8 6 1 3 6 -5 11 -9 6 -10 10 -3 10 18 0 26 -19 10 -26 -7 -2 -14 -11
-15 -19 -1 -8 -3 -22 -4 -30 -1 -8 -6 -15 -11 -15 -5 0 -7 -6 -4 -14 3 -8 -1
-20 -9 -26 -8 -7 -14 -9 -14 -5 0 4 -6 3 -13 -4 -10 -7 -17 -7 -24 0 -8 8 -13
7 -18 -2 -5 -8 -4 -10 3 -5 7 4 12 2 12 -4 0 -7 7 -9 16 -6 12 5 15 2 10 -10
-3 -8 -6 -18 -6 -21 0 -3 -8 1 -17 8 -16 13 -17 12 -4 -4 13 -17 15 -17 35 0
15 13 17 14 8 2 -6 -9 -8 -20 -4 -24 4 -5 1 -5 -6 -1 -8 5 -13 3 -11 -5 3 -28
-1 -39 -16 -39 -11 0 -12 -5 -5 -25 6 -15 6 -26 -1 -30 -5 -4 -7 -11 -4 -16 4
-5 2 -9 -4 -9 -5 0 -8 -8 -6 -17 1 -10 0 -22 -4 -28 -3 -5 -6 -17 -6 -25 0 -8
-4 -21 -8 -27 -5 -7 -5 -18 -1 -25 5 -7 3 -8 -6 -3 -10 6 -12 4 -6 -10 5 -15
4 -16 -9 -5 -11 9 -12 16 -5 25 5 6 6 16 2 20 -4 5 -2 5 4 2 6 -3 11 0 11 8 0
8 -4 15 -9 15 -4 0 -8 -4 -8 -10 0 -5 -5 -9 -11 -7 -6 1 -14 -5 -16 -13 -4
-12 -3 -12 5 -1 6 8 12 9 16 3 3 -6 2 -13 -4 -17 -6 -4 -4 -15 6 -31 20 -30 2
-32 -20 -1 l-17 22 12 -24 c10 -21 9 -23 -5 -18 -11 4 -15 3 -11 -4 4 -6 13
-8 21 -5 8 3 14 1 14 -5 0 -6 4 -8 9 -5 8 5 8 -22 1 -31 -2 -2 -4 -12 -5 -23
-1 -11 -3 -21 -5 -22 -1 -2 -3 -17 -4 -35 -1 -17 -8 -38 -15 -46 -9 -12 -9
-16 1 -19 10 -4 10 -8 -1 -21 -7 -9 -11 -23 -8 -30 3 -8 -1 -14 -9 -14 -7 0
-11 3 -9 7 9 14 13 60 6 60 -5 0 -9 -12 -9 -26 0 -15 -6 -30 -13 -35 -11 -7
-11 -9 -1 -9 9 0 10 -5 3 -19 -6 -10 -7 -21 -4 -25 3 -3 2 -6 -3 -6 -6 0 -15
5 -21 11 -8 8 -13 8 -18 0 -4 -7 -1 -10 7 -9 7 2 12 -3 10 -10 -2 -10 2 -10
18 -2 11 6 17 16 14 22 -4 7 -3 8 4 4 8 -5 10 -2 6 8 -3 9 -2 16 3 16 5 0 9
-11 9 -24 0 -14 -4 -22 -9 -19 -5 3 -7 -11 -4 -31 3 -20 1 -33 -4 -30 -5 3 -9
0 -9 -6 0 -6 -4 -9 -9 -5 -5 3 -13 0 -17 -6 -4 -8 -3 -9 4 -5 7 4 12 3 12 -2
0 -5 -8 -12 -18 -14 -10 -3 -19 -12 -19 -21 0 -9 4 -14 9 -11 5 3 5 10 2 16
-4 6 -1 9 7 6 8 -3 16 -13 17 -23 3 -10 0 -15 -7 -11 -6 4 -11 3 -11 -3 0 -5
6 -11 13 -14 6 -2 9 -8 5 -12 -4 -4 -14 -2 -22 4 -11 9 -16 9 -22 0 -4 -7 -3
-9 3 -6 6 4 18 -4 26 -17 19 -28 10 -43 -11 -18 -10 12 -9 8 2 -10 19 -33 21
-44 3 -30 -8 7 -18 8 -27 1 -12 -8 -11 -9 5 -7 14 2 20 -2 19 -14 -2 -20 22
-13 24 7 1 8 3 22 4 30 1 8 5 15 10 15 10 0 10 -11 -2 -30 -6 -9 -5 -19 2 -28
9 -10 8 -12 -2 -10 -7 2 -15 -3 -18 -11 -3 -9 0 -11 8 -6 9 5 11 4 6 -3 -4 -7
-1 -12 6 -12 8 0 5 -5 -5 -11 -14 -8 -22 -8 -30 0 -8 8 -8 11 2 11 7 0 9 5 6
10 -10 16 -21 12 -22 -9 -2 -20 22 -36 37 -26 5 3 11 1 14 -4 4 -5 2 -12 -4
-16 -7 -4 -7 -12 0 -25 8 -15 5 -22 -12 -35 -21 -14 -24 -14 -34 0 -11 14 -12
14 -18 0 -3 -9 -2 -14 3 -11 5 3 14 -1 21 -9 7 -8 18 -15 24 -15 6 0 4 5 -4
10 -12 7 -10 9 6 8 23 -2 26 -20 6 -40 -7 -7 -8 -17 -2 -29 7 -12 6 -20 -2
-25 -7 -5 -8 -2 -3 7 6 11 5 12 -5 2 -11 -10 -18 -9 -33 5 -16 14 -15 10 4
-20 13 -20 30 -36 38 -35 8 1 16 -4 19 -12 3 -9 -1 -11 -16 -7 -26 8 -35 -16
-16 -41 10 -13 14 -14 12 -3 -2 8 -7 18 -12 21 -4 4 -3 10 3 13 6 4 11 2 11
-4 0 -6 4 -9 8 -6 4 2 7 -21 7 -52 -1 -31 2 -62 6 -67 9 -12 7 -29 -6 -59 -6
-14 -3 -23 11 -33 16 -12 16 -14 2 -11 -9 2 -16 0 -15 -4 1 -4 -7 -14 -18 -23
l-20 -15 20 7 c11 3 17 3 13 -2 -4 -4 -2 -15 5 -23 10 -13 9 -15 -8 -9 l-20 7
20 -15 c11 -9 19 -17 18 -18 -8 -9 -21 -57 -14 -53 5 3 14 -1 21 -9 10 -12 10
-18 0 -30 -7 -9 -10 -18 -6 -22 3 -3 6 -1 6 6 0 9 5 9 20 1 12 -7 17 -16 13
-27 -5 -11 -3 -14 6 -8 10 6 11 3 2 -13 -8 -16 -7 -21 4 -26 11 -4 14 -14 10
-37 -4 -23 -2 -29 7 -23 9 6 9 3 -1 -9 -9 -11 -10 -17 -2 -17 6 0 11 -6 11
-14 0 -8 6 -17 13 -19 9 -4 9 -6 0 -6 -7 -1 -13 -6 -13 -12 0 -5 4 -8 9 -5 5
4 8 -2 6 -11 -1 -10 2 -24 8 -30 5 -7 6 -13 2 -13 -4 0 -3 -6 2 -12 12 -17 11
-39 -2 -35 -5 1 -9 5 -8 10 2 4 -1 7 -6 7 -17 0 -8 -51 11 -61 14 -7 16 -14 9
-23 -6 -7 -6 -17 -1 -26 5 -8 6 -18 4 -22 -3 -5 0 -7 7 -6 6 2 14 -3 17 -11 3
-8 0 -11 -7 -7 -6 4 -11 2 -11 -4 0 -14 22 -8 27 7 2 6 -3 17 -11 26 -9 8 -13
25 -10 40 3 19 -1 27 -16 32 -25 8 -26 21 -1 21 11 0 18 -4 15 -7 -2 -4 1 -11
7 -14 5 -4 8 -13 5 -21 -3 -7 -1 -16 5 -19 5 -4 7 -11 4 -16 -4 -5 -1 -9 6 -9
7 0 9 -3 6 -6 -3 -4 -1 -16 5 -28 6 -11 7 -18 3 -14 -4 4 -14 0 -20 -9 -10
-14 -10 -23 3 -50 18 -37 30 -43 28 -13 0 11 -5 20 -10 19 -12 -1 -26 23 -20
33 8 13 37 -21 39 -46 2 -11 8 -20 14 -18 7 1 10 -2 6 -8 -4 -6 -1 -17 5 -25
12 -14 6 -35 -10 -35 -5 0 -7 9 -5 20 2 11 -1 20 -6 20 -6 0 -7 5 -3 12 4 7 3
8 -4 4 -6 -4 -9 -13 -5 -21 3 -8 0 -15 -6 -15 -6 0 -11 -4 -11 -10 0 -5 3 -9
7 -7 5 1 10 -2 12 -8 2 -5 12 -16 22 -23 14 -9 16 -18 10 -35 -5 -12 -14 -21
-21 -19 -6 1 -9 -2 -6 -7 11 -17 56 0 56 22 0 7 -4 6 -11 -3 -9 -12 -10 -11
-6 8 3 12 -1 29 -9 36 -11 12 -11 15 2 20 8 3 13 2 10 -3 -3 -5 1 -12 10 -15
8 -3 13 -10 9 -16 -3 -5 -1 -19 6 -31 6 -12 7 -19 2 -16 -5 3 -14 -3 -21 -14
-7 -11 -8 -19 -2 -19 5 0 10 5 10 10 0 11 30 14 31 3 3 -31 10 -46 25 -57 13
-10 14 -15 5 -20 -7 -5 -15 -5 -18 -2 -4 3 -1 6 5 6 7 0 3 9 -8 20 -12 12 -18
25 -15 30 3 5 0 12 -6 16 -7 4 -9 3 -6 -3 4 -6 0 -13 -8 -17 -8 -3 -15 -11
-15 -18 0 -9 3 -9 10 2 9 13 12 12 22 -5 15 -25 17 -37 6 -52 -9 -12 9 -30 19
-19 3 3 12 -2 20 -12 8 -9 12 -12 9 -5 -4 6 -1 15 5 19 8 4 9 3 5 -4 -4 -7 -1
-12 6 -12 8 0 6 -5 -5 -11 -9 -6 -15 -14 -12 -20 4 -5 1 -9 -4 -9 -6 0 -11 -5
-11 -11 0 -8 4 -8 14 0 16 14 46 4 46 -15 0 -8 5 -14 12 -14 6 0 8 -3 4 -7 -4
-4 -15 2 -24 14 -15 20 -19 20 -36 7 -11 -7 -15 -14 -10 -14 6 0 15 5 22 12 7
7 12 8 12 2 0 -5 -5 -15 -12 -22 -9 -9 -9 -12 0 -12 7 0 12 5 12 11 0 5 5 7
10 4 6 -4 8 -11 5 -16 -4 -5 -1 -17 5 -26 9 -16 10 -15 5 5 -4 13 -2 22 5 22
7 0 10 -12 9 -27 -3 -29 19 -73 35 -73 5 0 2 8 -7 18 -10 10 -14 22 -10 27 5
4 2 5 -6 0 -9 -5 -12 -4 -7 3 11 18 27 14 24 -5 -2 -10 3 -18 10 -19 6 -1 15
-2 18 -3 3 0 -5 -16 -17 -33 l-23 -33 28 25 c22 20 26 21 20 6 -5 -14 -4 -17
5 -12 6 4 11 4 10 -1 -4 -22 2 -34 14 -27 6 4 9 4 5 -1 -4 -4 4 -23 19 -41 14
-19 21 -34 17 -34 -5 0 -1 -7 9 -14 10 -8 17 -18 16 -22 -1 -5 -1 -16 0 -24 1
-13 2 -13 11 0 5 8 10 11 10 5 0 -15 -16 -37 -26 -35 -5 1 -10 -4 -12 -12 -2
-9 0 -8 7 2 10 14 16 7 12 -13 -1 -5 3 -6 9 -2 9 6 14 -7 11 -27 0 -5 3 -8 8
-8 6 0 9 9 8 20 -1 11 -4 20 -7 20 -4 0 -7 7 -7 15 0 8 4 15 9 15 4 0 8 -5 8
-11 0 -6 7 -17 14 -25 15 -14 15 -62 0 -85 -4 -8 -3 -9 5 -5 31 20 58 16 70
-10 8 -17 8 -30 2 -38 -11 -14 -3 -30 20 -38 9 -4 16 -1 16 7 0 7 -6 11 -13 8
-6 -2 -15 0 -18 5 -6 10 23 26 31 18 2 -2 6 -16 9 -32 3 -16 9 -33 15 -39 5
-5 9 -14 9 -19 0 -6 -5 -5 -12 2 -7 7 -17 12 -22 12 -6 0 -3 -5 7 -11 9 -6 14
-15 11 -21 -4 -6 -3 -8 3 -5 14 9 37 -19 28 -33 -4 -7 6 -5 23 4 27 14 31 14
45 -2 9 -9 16 -21 16 -27 1 -5 7 -10 14 -10 6 0 12 -9 12 -20 0 -14 -7 -20
-23 -21 -12 -1 -22 5 -22 12 0 17 12 18 26 4 7 -7 11 -6 11 4 0 17 -43 14 -60
-4 -9 -10 -9 -11 0 -6 6 3 13 1 15 -6 5 -15 37 -19 58 -8 14 7 28 -2 64 -40
26 -27 47 -53 48 -57 0 -4 14 -16 29 -25 28 -17 32 -52 4 -42 -7 3 -15 -2 -19
-12 -5 -14 -4 -15 9 -4 14 11 19 7 16 -12 0 -5 4 -8 9 -8 6 0 11 5 11 10 1 6
2 15 3 20 0 6 6 10 11 9 12 0 7 -28 -8 -49 -6 -8 0 -5 14 7 18 17 28 20 36 12
6 -6 9 -17 6 -25 -3 -9 2 -12 16 -9 12 2 20 -1 18 -8 -1 -6 3 -11 9 -12 18 0
93 -72 90 -87 -1 -7 -6 -19 -10 -27 -7 -10 -6 -12 4 -6 10 6 12 4 7 -7 -6 -17
8 -19 32 -4 10 7 12 3 7 -15 -6 -21 -5 -22 4 -6 7 11 16 15 24 10 6 -4 3 0 -7
10 -16 14 -22 15 -35 5 -13 -11 -15 -10 -9 5 4 10 3 16 -2 12 -11 -6 -8 22 4
32 4 4 5 3 1 -4 -4 -8 6 -19 26 -29 18 -9 37 -23 41 -31 5 -7 13 -10 19 -7 7
4 8 2 4 -4 -4 -7 -2 -12 3 -12 6 0 11 -5 11 -11 0 -8 -4 -9 -13 0 -8 6 -18 7
-22 3 -5 -4 -6 -2 -2 3 3 6 -3 11 -13 11 -15 0 -16 -3 -8 -14 6 -7 17 -11 24
-8 8 3 20 -4 28 -16 16 -23 12 -42 -7 -32 -7 4 -8 3 -4 -1 10 -11 39 -16 32
-5 -2 4 7 7 21 8 24 0 24 -1 7 -22 -18 -21 -18 -21 4 -3 12 11 20 26 17 35 -3
10 2 6 10 -8 8 -14 15 -19 16 -12 0 10 3 10 15 -2 8 -8 24 -18 35 -21 11 -3
20 -11 20 -17 0 -7 -5 -6 -15 2 -8 6 -20 8 -26 4 -8 -5 -9 -3 -4 6 5 9 4 11
-3 6 -7 -4 -12 -3 -12 2 0 5 -7 9 -15 9 -8 0 -15 -4 -15 -9 0 -4 7 -8 15 -8 8
0 15 -5 15 -11 0 -6 9 -8 21 -4 20 7 20 6 4 -19 -17 -25 -17 -26 1 -20 11 4
25 14 31 22 20 25 26 6 8 -25 -14 -22 -14 -24 -1 -9 14 17 16 17 22 3 3 -10
10 -17 16 -17 5 0 7 4 4 9 -4 5 -3 11 1 14 5 2 2 2 -5 0 -8 -1 -10 2 -6 9 4 7
3 8 -4 4 -8 -4 -10 -2 -6 8 5 12 10 11 30 -7 13 -11 24 -25 24 -31 0 -6 -5 -4
-10 4 -7 12 -9 10 -7 -7 0 -12 4 -20 8 -17 4 2 9 -4 11 -13 3 -15 5 -14 10 5
3 12 2 20 -3 16 -5 -3 -6 2 -2 12 5 15 7 15 15 0 5 -9 13 -14 18 -11 5 3 11 1
15 -5 4 -6 11 -8 16 -5 5 3 6 -2 2 -11 -5 -13 -3 -15 7 -9 9 6 11 4 5 -5 -6
-10 -11 -9 -22 5 -7 11 -13 15 -13 11 0 -5 -8 -2 -18 5 -15 13 -16 12 -4 -3 7
-9 9 -18 5 -20 -4 -3 -2 -3 6 -1 8 2 23 -5 34 -14 11 -10 17 -13 14 -7 -4 7 0
15 9 18 12 5 15 2 10 -11 -6 -14 -4 -15 5 -6 13 13 39 7 39 -9 0 -6 -6 -5 -15
2 -8 7 -15 10 -15 7 0 -7 53 -61 60 -62 3 0 4 -3 3 -7 -2 -5 2 -8 7 -8 6 0 10
5 10 10 0 6 5 10 11 10 5 0 7 -4 4 -10 -3 -5 -1 -10 5 -10 7 0 10 6 7 13 -2 6
-11 11 -20 11 -9 -1 -14 3 -10 9 3 5 2 7 -4 4 -6 -4 -17 -1 -26 6 -13 9 -14
16 -6 27 9 13 10 12 5 -3 -5 -15 -2 -17 14 -12 11 4 20 2 20 -4 0 -6 9 -11 20
-11 11 0 19 -3 19 -8 -1 -4 0 -10 1 -14 6 -20 5 -34 -5 -40 -15 -11 7 -10 24
1 10 7 11 13 2 30 -10 17 -9 20 4 15 8 -3 12 -10 9 -15 -3 -5 2 -9 10 -9 9 0
16 -5 16 -11 0 -5 -4 -8 -9 -5 -5 4 -4 -5 2 -19 8 -17 13 -20 15 -10 2 8 8 13
13 9 5 -3 6 -11 2 -17 -4 -7 0 -6 10 2 10 8 17 9 17 3 0 -6 -8 -16 -17 -21
-10 -6 -13 -10 -8 -11 15 0 31 13 38 32 4 13 1 16 -14 13 -11 -2 -17 0 -14 5
3 5 -3 7 -14 5 -14 -3 -18 1 -14 12 5 12 7 12 14 1 5 -7 9 -9 9 -4 0 5 7 3 15
-4 8 -7 15 -9 15 -5 0 5 9 0 20 -10 11 -10 20 -15 20 -10 0 4 7 2 15 -5 8 -7
15 -9 15 -6 0 4 10 1 23 -6 12 -7 25 -11 29 -10 4 1 5 -5 2 -13 -4 -9 -1 -15
7 -15 7 0 3 -11 -12 -28 l-24 -27 27 24 c15 13 24 29 21 37 -3 8 1 14 8 14 7
0 9 -3 6 -7 -4 -3 -2 -12 4 -20 9 -10 8 -13 -1 -13 -9 0 -10 -3 -1 -13 6 -8 8
-17 4 -20 -3 -4 -2 -7 4 -7 5 0 15 12 22 28 10 24 10 25 -3 9 -13 -17 -14 -16
-12 7 1 19 4 22 18 15 9 -5 20 -13 23 -19 3 -5 13 -6 22 -3 10 4 14 2 10 -4
-4 -6 4 -11 18 -12 48 -3 55 -4 55 -13 0 -5 4 -7 9 -3 5 3 17 -2 26 -11 15
-15 15 -18 -2 -37 -18 -19 -18 -20 5 -6 12 8 20 19 18 26 -6 16 10 27 19 13 4
-6 11 -7 17 -4 7 4 8 2 4 -5 -4 -6 -11 -9 -15 -7 -4 3 -7 -7 -8 -22 0 -15 1
-20 4 -11 6 23 47 41 62 26 6 -6 11 -16 11 -21 0 -6 -5 -4 -10 4 -5 8 -10 10
-10 4 0 -15 29 -39 37 -30 3 3 2 6 -4 6 -6 0 -9 9 -6 20 8 30 21 10 25 -37 1
-7 5 -10 9 -7 4 2 9 -1 11 -8 3 -7 7 -5 11 6 4 10 3 15 -3 11 -6 -3 -10 -1
-10 4 0 6 9 11 21 11 13 0 18 4 13 12 -5 7 -3 8 7 2 8 -5 21 -9 29 -9 8 0 20
-3 25 -6 6 -4 18 -5 27 -4 11 2 15 -2 11 -12 -4 -10 -8 -11 -13 -3 -5 8 -9 6
-14 -6 -3 -9 -4 -19 -1 -22 3 -3 5 1 5 8 0 9 5 7 15 -6 15 -19 15 -19 8 1 -6
17 -4 18 9 8 8 -7 18 -9 23 -5 4 4 5 -3 2 -16 -3 -12 -2 -20 3 -17 4 3 10 13
13 24 3 13 0 18 -12 16 -21 -3 -33 4 -25 16 4 6 11 6 20 -2 11 -9 14 -8 14 2
0 12 2 12 9 0 5 -8 16 -11 26 -8 11 5 14 3 9 -5 -5 -8 -2 -9 10 -5 10 4 15 3
11 -3 -3 -6 -1 -10 4 -10 6 0 14 -1 19 -1 10 -2 37 -42 35 -51 -2 -4 4 -5 13
-1 15 5 15 7 1 15 -10 5 -14 16 -11 26 5 13 4 14 -4 4 -7 -11 -10 -11 -16 3
-3 9 -11 13 -18 9 -10 -5 -10 -4 0 7 11 12 14 12 21 0 6 -9 11 -10 15 -2 11
17 25 3 21 -19 -2 -11 1 -19 8 -17 7 1 11 -4 9 -11 -2 -10 2 -10 16 -3 13 7
23 6 32 -2 12 -10 12 -9 1 5 -7 10 -19 14 -28 11 -11 -4 -14 -3 -9 6 5 7 15
10 24 6 8 -3 20 0 25 7 6 9 7 7 3 -7 -6 -20 -6 -20 9 -1 9 12 15 15 15 7 0 -8
8 -11 20 -8 20 5 46 -24 33 -37 -3 -3 -2 -6 4 -6 6 0 14 7 17 16 3 8 2 13 -2
10 -5 -3 -9 1 -9 9 0 9 6 11 16 7 9 -4 38 -7 64 -6 26 1 46 0 45 -1 -13 -11
-49 -25 -45 -18 8 12 -39 10 -50 -1 -4 -5 -3 -6 4 -2 6 3 16 -2 22 -11 6 -10
11 -13 11 -6 0 11 30 11 48 -1 4 -2 14 0 22 6 12 8 12 9 -2 4 -10 -3 -20 -1
-23 4 -4 6 7 10 24 10 17 0 31 4 31 9 0 6 9 9 20 8 11 -1 20 -5 20 -10 0 -4 5
-5 12 -1 7 4 8 3 4 -4 -5 -9 -13 -9 -26 -2 -16 9 -18 8 -14 -5 4 -9 9 -13 12
-11 3 3 11 -2 19 -12 11 -13 14 -13 11 -2 -3 8 4 23 14 33 10 9 18 12 18 7 0
-7 6 -7 19 0 12 6 22 6 26 1 3 -5 21 -7 41 -5 23 3 33 1 29 -6 -4 -6 -10 -8
-15 -5 -5 3 -11 1 -14 -4 -4 -5 -2 -12 4 -16 6 -4 7 -11 4 -17 -4 -7 -2 -8 5
-4 6 4 9 11 6 16 -7 12 37 9 53 -3 8 -6 12 -5 12 2 0 7 8 11 18 9 10 -2 17 3
17 14 0 9 4 20 9 25 5 4 6 3 2 -4 -4 -7 -2 -13 4 -13 6 0 8 -5 5 -10 -3 -6 -1
-10 5 -10 7 0 9 8 5 20 -5 16 -2 19 14 17 11 -2 24 -6 27 -10 12 -12 44 -8 44
6 0 7 3 8 8 2 10 -14 46 -19 37 -6 -4 7 0 8 11 4 13 -5 15 -3 9 7 -5 9 -4 11
4 6 6 -4 9 -12 6 -17 -4 -5 -1 -9 5 -9 6 0 9 -4 6 -8 -3 -5 1 -9 9 -9 11 0 12
4 4 14 -9 9 -8 13 0 13 6 0 14 -7 18 -16 5 -13 7 -13 14 -2 7 11 11 10 19 -2
7 -12 9 -10 7 7 -1 20 -16 26 -27 11 -3 -3 -14 1 -25 9 -19 15 -19 15 4 8 18
-6 22 -4 15 6 -6 11 -5 12 8 2 8 -7 18 -9 22 -5 4 4 21 8 37 8 16 1 32 3 37 4
4 2 21 4 37 5 17 2 32 3 35 5 34 13 80 -16 64 -41 -5 -8 -3 -10 5 -5 7 5 10
14 7 22 -3 8 -1 14 4 14 6 0 10 -5 10 -12 0 -6 2 -9 5 -6 3 3 3 13 -1 22 -5
12 -10 14 -19 6 -9 -8 -14 -7 -18 3 -3 9 2 13 16 12 12 -1 27 2 33 6 7 6 18 1
29 -11 13 -15 21 -17 31 -9 9 7 19 7 33 -1 16 -8 19 -8 15 3 -6 17 25 19 46 3
13 -10 13 -9 1 7 -13 17 -12 17 20 12 27 -4 30 -3 17 5 -10 6 -18 18 -18 26 0
14 2 14 16 0 8 -9 20 -14 25 -11 5 4 9 1 9 -5 0 -6 4 -8 10 -5 17 11 11 24
-10 20 -11 -2 -23 1 -26 7 -4 6 -2 8 4 4 6 -3 14 -2 17 4 5 8 11 8 19 1 7 -6
16 -8 19 -4 4 3 7 -1 7 -9 0 -9 7 -19 16 -22 25 -9 25 -7 4 14 -26 26 -25 39
3 33 18 -4 20 -3 7 7 -13 10 -13 11 3 6 10 -3 17 0 17 7 0 8 4 6 10 -3 5 -8
10 -19 10 -25 0 -5 -4 -5 -8 2 -5 8 -12 8 -25 -2 -12 -8 -14 -15 -8 -20 6 -3
11 -1 11 4 0 6 10 9 23 7 12 -2 21 -9 19 -16 -1 -6 2 -9 8 -5 6 4 4 14 -5 29
-18 27 -3 46 30 39 11 -2 28 -4 38 -4 9 0 15 -4 12 -10 -4 -5 -1 -9 5 -9 7 0
9 7 6 16 -3 9 -6 18 -6 21 0 3 -6 0 -14 -6 -11 -9 -16 -9 -22 0 -4 7 -3 9 4 5
6 -3 14 -1 17 5 5 7 16 2 33 -13 l26 -23 -19 30 c-14 23 -15 27 -3 17 10 -8
19 -9 22 -3 3 5 3 11 -1 14 -5 2 -2 2 5 1 6 -2 12 2 12 9 0 8 3 8 9 -2 7 -11
9 -11 13 0 3 9 6 8 11 -5 4 -10 3 -15 -3 -11 -6 3 -10 0 -10 -7 0 -11 -2 -10
-9 0 -6 11 -10 10 -15 -4 -3 -9 -4 -19 -1 -22 3 -3 5 -1 5 4 0 5 9 10 20 11
13 1 18 -2 14 -9 -4 -6 -3 -8 4 -5 5 4 9 18 8 31 -2 14 1 30 5 38 7 10 9 10 9
1 0 -7 5 -13 11 -13 5 0 8 4 4 9 -3 5 0 13 6 17 7 4 9 3 5 -4 -3 -6 -2 -13 4
-17 9 -5 14 7 11 27 0 4 6 5 14 2 8 -4 15 -1 15 6 0 6 5 8 10 5 6 -3 10 -11
10 -16 0 -6 -4 -8 -8 -5 -4 2 -8 -4 -8 -15 0 -19 1 -19 13 -3 7 10 13 14 13
10 0 -5 7 -3 15 4 8 7 15 18 15 24 0 6 -8 2 -17 -9 -13 -16 -15 -17 -10 -2 4
10 1 17 -6 17 -8 0 -7 4 3 10 9 5 19 5 26 -1 9 -7 15 -5 21 6 5 9 17 17 25 19
9 1 22 7 30 14 8 6 18 9 21 5 4 -3 7 -1 7 5 0 7 5 12 11 12 5 0 8 -4 5 -9 -10
-16 22 -20 35 -5 8 9 16 11 23 5 8 -7 12 -3 13 12 2 15 0 18 -6 9 -6 -11 -10
-10 -15 4 -4 10 -4 15 0 11 4 -4 17 2 29 13 19 18 24 19 34 6 11 -13 9 -15 -8
-11 -14 2 -19 0 -15 -7 5 -7 2 -8 -6 -3 -9 5 -11 4 -6 -4 6 -9 11 -9 23 1 14
11 15 10 9 -12 -7 -24 -6 -24 6 -4 7 12 21 20 31 19 20 -4 22 6 5 24 -11 10
-8 11 14 7 15 -2 31 -7 36 -10 5 -3 9 1 9 8 0 9 -7 12 -16 8 -14 -5 -14 -4 -2
12 14 17 16 17 28 0 7 -9 10 -21 6 -27 -3 -6 -1 -7 5 -3 9 5 9 13 2 27 -6 11
-8 25 -3 32 4 6 -5 4 -20 -6 -15 -9 -27 -14 -27 -10 1 11 117 76 143 80 17 2
19 1 7 -6 -8 -5 -18 -7 -24 -4 -5 3 -6 1 -2 -5 4 -8 2 -10 -7 -6 -8 3 -18 1
-22 -5 -3 -7 0 -8 10 -5 11 5 14 2 9 -10 -5 -12 -10 -13 -26 -5 -16 9 -19 8
-13 -2 5 -7 4 -10 -1 -6 -6 3 -11 -3 -11 -14 -2 -17 0 -17 13 -5 8 8 23 13 34
11 12 -2 18 0 14 6 -8 14 16 41 32 35 15 -6 12 23 -4 33 -7 4 -4 11 11 20 20
13 21 13 9 -1 -10 -13 -10 -17 3 -22 9 -3 13 -11 9 -17 -4 -8 -3 -9 5 -5 8 6
9 12 2 20 -11 13 -5 26 11 26 5 0 7 -4 4 -9 -3 -5 2 -15 12 -22 15 -13 16 -12
4 3 -14 17 -4 31 20 25 7 -2 10 -2 6 0 -5 3 -8 9 -8 14 0 5 3 8 8 8 4 -1 10 0
15 1 4 1 12 3 17 4 6 0 10 4 10 9 0 30 -1 31 -10 17 -7 -11 -10 -11 -10 -2 0
7 -5 10 -11 6 -8 -4 -7 -9 2 -15 8 -5 12 -9 9 -10 -3 0 -14 -2 -24 -4 -10 -2
-23 -10 -27 -17 -5 -7 -9 -8 -9 -3 0 6 5 17 10 25 5 8 10 11 10 5 0 -5 7 0 15
12 15 22 29 24 54 8 10 -6 18 -3 25 7 8 14 12 13 28 -6 19 -21 19 -21 1 9 -10
16 -17 32 -16 35 1 3 -1 7 -4 10 -2 3 -4 1 -2 -5 3 -14 -11 -45 -21 -45 -4 0
-10 7 -14 15 -3 8 -2 14 2 14 20 -3 32 2 29 13 -1 7 4 12 11 13 7 0 16 5 20
11 8 13 51 13 72 0 13 -9 13 -8 0 9 -14 17 -13 18 3 12 10 -4 16 -3 12 2 -3 5
-1 12 5 16 5 3 10 14 10 23 0 9 7 25 15 36 13 18 14 18 12 -2 0 -11 -6 -18
-12 -14 -5 3 -4 -2 4 -11 15 -18 26 -23 16 -7 -3 6 -2 10 3 10 5 0 9 10 8 23
-1 13 10 33 27 50 16 16 27 21 24 13 -4 -10 -1 -16 9 -16 9 0 12 -5 8 -12 -6
-10 -5 -10 8 -1 8 7 18 10 22 6 4 -4 4 1 0 11 -6 15 -4 17 7 11 12 -7 12 -6 1
7 -11 14 -9 20 10 39 21 20 21 21 3 15 -19 -6 -19 -5 -2 8 10 8 28 12 40 9 22
-5 22 -5 2 11 -19 16 -19 16 6 7 15 -5 30 -7 33 -4 3 4 6 1 6 -5 0 -5 -5 -13
-10 -15 -6 -3 -5 -4 2 -3 7 1 13 12 14 23 1 11 4 25 8 32 5 7 1 9 -8 5 -9 -3
-14 -10 -11 -14 3 -5 0 -12 -6 -16 -8 -5 -9 -3 -4 6 6 10 4 12 -10 6 -15 -5
-16 -4 -5 9 7 8 19 15 27 15 9 0 13 6 10 14 -7 17 27 14 49 -5 10 -8 14 -8 14
0 0 6 -5 11 -11 11 -5 0 -8 4 -4 9 3 5 0 13 -6 17 -8 5 -9 3 -4 -6 5 -9 4 -11
-3 -6 -17 10 -15 26 3 26 8 0 15 5 15 10 0 6 7 10 15 10 9 0 15 6 13 14 -2 8
-1 14 2 13 10 -4 38 28 32 37 -3 5 0 6 6 2 7 -4 12 -2 12 3 0 6 15 26 34 46
19 19 32 35 29 35 -3 0 0 6 6 14 18 22 60 26 71 7 5 -9 10 -11 10 -6 0 6 -6
17 -12 24 -11 11 -10 13 4 8 19 -7 34 8 18 18 -6 4 -7 11 -4 17 4 6 3 8 -2 5
-5 -3 -10 3 -10 13 0 11 2 17 5 15 2 -3 11 4 19 16 8 11 20 18 28 15 7 -3 20
1 28 9 7 8 16 12 20 10 3 -3 4 -2 1 2 -9 12 -36 12 -29 1 5 -7 2 -8 -6 -3 -9
6 -11 4 -5 -5 5 -8 4 -11 -3 -6 -22 13 0 38 30 34 16 -3 32 0 35 5 3 6 1 7 -5
3 -6 -3 -13 -2 -17 4 -4 6 -11 8 -16 5 -5 -4 -6 2 -2 11 4 11 8 13 11 6 9 -28
38 -10 65 41 15 29 27 58 27 65 0 17 10 15 27 -5 13 -16 13 -16 3 5 -8 17 -17
21 -33 17 -12 -4 -17 -3 -12 2 6 4 19 25 30 46 11 20 26 37 33 37 7 0 11 3 9
7 -7 12 11 53 23 53 6 0 3 -11 -6 -25 -9 -14 -12 -25 -8 -25 5 0 -2 -9 -15
-19 -20 -16 -22 -21 -12 -42 11 -22 11 -22 -2 -6 -13 16 -15 16 -21 2 -3 -9
-2 -13 4 -10 6 3 10 1 10 -5 0 -7 6 -10 13 -8 6 3 12 10 12 16 0 5 3 13 7 17
4 4 4 13 2 20 -3 7 0 16 5 20 6 3 9 10 7 14 -3 4 6 14 19 21 l24 13 -21 17
c-15 12 -18 19 -10 24 7 4 15 0 18 -8 3 -9 13 -16 22 -16 14 0 14 1 1 12 -21
18 -47 53 -32 45 7 -4 14 1 18 13 3 11 11 20 16 20 5 0 8 3 8 8 -1 4 0 10 1
15 4 12 7 26 9 37 0 6 8 10 16 10 8 0 12 6 9 14 -3 7 1 20 9 27 7 8 12 20 9
27 -2 6 4 12 15 12 15 0 16 -2 3 -10 -13 -8 -13 -10 -1 -10 11 0 10 -4 -5 -16
-10 -8 -14 -13 -7 -10 6 4 13 0 16 -6 3 -10 8 -10 18 1 8 8 9 11 2 7 -8 -4
-11 1 -10 14 1 11 5 20 10 20 5 0 0 8 -12 18 -20 17 -20 17 0 41 11 13 22 21
25 19 3 -3 -1 -12 -8 -20 -20 -21 -19 -34 3 -35 10 -1 19 3 19 8 0 6 -4 7 -10
4 -13 -8 -13 5 0 25 8 12 10 12 10 1 0 -8 3 -12 6 -8 9 9 -22 48 -32 39 -5 -4
-1 2 9 14 9 11 14 24 10 29 -5 4 -2 4 6 0 11 -6 13 -4 8 9 -4 10 -3 15 3 11 6
-3 10 -2 10 4 0 5 -6 12 -12 14 -10 4 -10 6 0 6 7 1 10 6 6 13 -4 6 -3 8 4 5
5 -4 9 -18 7 -32 -1 -14 2 -25 6 -25 5 0 9 6 9 14 0 8 6 17 13 19 9 4 9 6 0 6
-7 1 -17 10 -23 21 -13 24 -7 26 15 4 9 -9 18 -14 21 -11 3 3 -5 15 -18 27
-13 13 -17 20 -10 16 9 -6 11 -1 8 18 -3 15 -1 24 3 21 5 -2 15 3 22 12 12 15
12 16 -4 10 -11 -4 -16 -3 -12 3 3 6 13 10 20 10 11 0 12 6 5 25 -6 15 -6 26
1 30 5 4 7 10 4 15 -3 5 -1 11 5 15 6 4 8 10 5 14 -2 5 12 7 31 5 20 -1 33 0
30 3 -3 4 -16 7 -28 8 -12 1 -22 9 -24 18 -2 13 2 15 16 7 13 -7 19 -6 23 4 3
7 0 13 -6 12 -7 0 -12 3 -12 9 0 5 3 9 8 8 4 -2 7 6 7 18 0 13 -4 18 -12 13
-7 -5 -8 -3 -2 7 4 8 10 20 11 27 5 23 11 47 13 52 1 3 3 11 4 17 1 17 20 18
24 1 2 -9 0 -8 -8 2 -10 13 -11 13 -7 -1 3 -9 0 -22 -6 -28 -6 -6 -8 -11 -4
-11 3 0 17 11 31 25 17 17 20 25 11 25 -8 0 -15 5 -15 10 0 6 7 10 15 10 8 0
15 5 15 11 0 5 -4 7 -10 4 -5 -3 -19 -8 -31 -10 -18 -4 -19 -2 -8 12 8 9 12
27 11 41 -3 16 0 22 8 17 14 -9 42 14 33 28 -4 7 0 8 13 3 14 -5 16 -4 7 5
-12 12 -37 3 -28 -11 3 -5 1 -11 -4 -14 -5 -4 -12 -2 -15 3 -4 5 -2 12 4 16 5
3 10 11 10 16 0 6 -6 7 -12 3 -9 -5 -9 -2 1 9 7 9 10 17 6 17 -4 0 -2 7 5 15
9 11 17 12 31 5 15 -8 17 -7 13 5 -4 8 -1 15 7 15 7 0 9 3 6 6 -4 4 -13 1 -22
-6 -12 -10 -15 -10 -15 0 0 9 -4 9 -17 -1 -16 -13 -17 -12 -4 4 7 9 10 17 6
17 -4 0 -3 6 3 13 7 8 7 18 2 27 -6 9 -4 20 3 29 7 8 11 16 10 18 -2 1 0 3 5
3 10 0 10 -22 0 -36 -4 -6 -6 -20 -3 -33 2 -14 0 -19 -7 -15 -7 4 -8 3 -4 -4
4 -6 14 -8 22 -5 9 3 11 9 6 12 -5 3 -7 15 -5 26 2 11 5 25 5 32 1 7 13 10 30
8 16 -2 26 1 22 6 -3 5 -9 7 -14 4 -10 -6 -40 5 -40 15 0 5 10 6 23 4 l22 -5
-23 10 c-19 9 -21 13 -10 30 6 11 16 17 20 15 4 -3 8 0 8 5 0 6 -3 11 -7 11
-11 0 -40 -20 -29 -20 5 0 3 -6 -3 -13 -6 -8 -8 -17 -4 -20 3 -4 1 -7 -5 -7
-12 0 -11 34 1 46 4 4 1 14 -6 23 -10 14 -10 14 5 3 9 -8 19 -9 22 -4 3 6 0
12 -8 15 -13 5 -16 50 -3 63 12 12 8 26 -5 18 -10 -6 -10 -4 -2 7 5 8 10 28 9
46 -1 18 2 30 7 27 4 -3 8 5 8 18 0 19 -2 20 -11 8 -9 -13 -10 -13 -6 0 2 8
13 20 25 26 35 17 40 26 8 14 -35 -13 -41 -8 -24 19 11 18 11 23 -2 31 -11 7
-11 10 -2 10 9 0 10 5 3 19 -8 14 -7 22 4 31 17 14 16 15 20 -27 1 -20 -2 -30
-8 -26 -6 3 -7 1 -3 -6 4 -6 11 -9 16 -6 5 3 11 -3 14 -12 6 -21 0 30 -9 70
-3 15 -1 27 5 27 5 0 10 5 10 11 0 8 -4 8 -12 2 -20 -16 -46 -12 -43 6 2 9 4
17 5 19 7 7 5 28 -2 38 -5 7 -1 17 9 25 11 9 14 10 9 2 -4 -7 -2 -13 3 -13 22
0 10 30 -11 31 -22 0 -22 1 -3 8 11 5 27 6 35 4 9 -3 11 -2 5 4 -5 4 -10 14
-10 22 0 8 -6 15 -13 17 -7 1 -8 0 -2 -3 5 -2 10 -9 10 -14 0 -6 -5 -7 -12 -3
-7 4 -8 3 -4 -4 4 -7 2 -12 -4 -12 -7 0 -10 6 -7 14 3 7 0 19 -6 26 -9 10 -9
11 1 6 6 -4 12 -2 12 3 0 6 6 10 13 8 7 -1 11 6 9 18 -2 11 -3 30 -3 43 1 12
-4 22 -10 22 -5 0 -7 5 -4 10 5 8 12 7 23 -2 15 -11 15 -11 5 3 -7 9 -9 20 -5
25 4 5 -3 0 -15 -10 -15 -13 -20 -23 -14 -30 11 -13 10 -34 -2 -53 -6 -9 -3
-11 7 -7 9 3 16 2 16 -3 0 -5 -9 -9 -20 -10 -20 -2 -23 18 -7 45 5 6 4 12 -1
12 -4 0 -9 12 -10 28 -3 56 -10 127 -12 130 -1 1 -3 11 -4 21 0 11 -4 23 -8
27 -12 12 12 33 30 28 15 -5 15 -4 -1 6 -9 6 -22 8 -29 4 -6 -4 -8 -3 -4 4 3
6 2 13 -3 16 -5 3 -7 24 -5 47 2 22 0 38 -4 35 -5 -3 -9 1 -9 9 0 8 5 11 10 8
5 -3 7 0 5 8 -3 8 -11 13 -18 11 -11 -2 -11 0 -1 11 9 12 9 16 -1 20 -9 4 -10
6 -1 6 7 1 10 7 7 15 -3 8 0 17 7 22 9 5 10 2 6 -9 -3 -10 -2 -17 2 -17 5 0
11 7 15 15 3 8 1 15 -5 15 -6 0 -7 6 -3 13 8 13 -24 -10 -39 -28 -5 -6 -7 -3
-4 6 3 9 1 21 -4 26 -6 6 -4 10 5 10 8 0 12 -5 9 -10 -3 -6 -1 -7 5 -3 16 9 3
36 -14 29 -8 -3 -14 0 -14 7 0 6 5 8 11 4 7 -4 10 -1 7 7 -3 8 -10 13 -16 12
-6 -2 -9 8 -6 23 3 15 1 23 -5 20 -6 -4 -8 2 -6 14 2 11 0 22 -5 25 -4 3 -7
13 -6 23 2 9 -2 20 -8 24 -8 6 -7 8 1 8 7 0 10 7 6 17 -4 11 -3 14 5 9 7 -4
10 -18 8 -32 -3 -14 0 -24 7 -24 8 0 8 -3 -1 -9 -10 -6 -10 -10 2 -20 11 -9
16 -9 22 0 4 7 3 9 -4 5 -6 -4 -11 2 -11 14 -1 11 -1 29 -2 40 0 11 -5 22 -10
26 -6 4 -6 11 2 20 6 7 16 11 22 7 6 -3 7 -1 3 6 -6 9 -11 9 -22 0 -11 -9 -14
-9 -14 1 0 7 -6 10 -14 7 -8 -3 -20 1 -26 9 -7 8 -9 14 -5 14 4 0 2 7 -5 15
-7 8 -10 15 -6 15 4 0 -1 14 -10 31 -8 17 -11 28 -6 25 6 -3 13 0 16 6 3 7 3
2 0 -11 -4 -14 -2 -21 4 -18 5 4 8 -4 6 -18 -1 -16 2 -23 8 -19 7 5 8 2 3 -6
-6 -9 -4 -11 6 -5 12 8 12 6 0 -8 -16 -20 -5 -23 14 -4 11 11 10 16 -6 25 -10
7 -19 17 -19 24 0 6 10 3 23 -8 20 -17 20 -16 -2 8 -23 26 -23 29 -8 46 14 15
15 19 2 19 -8 0 -11 -5 -8 -10 3 -5 0 -8 -7 -5 -30 10 -18 44 13 39 5 -1 6 3
2 8 -7 12 -55 -7 -55 -21 0 -5 4 -7 8 -4 5 3 9 -1 9 -9 0 -23 -13 -18 -25 11
-7 14 -8 23 -2 19 5 -3 10 3 10 14 0 12 5 21 10 21 6 0 10 4 10 8 0 5 -6 9
-14 9 -8 0 -15 -3 -14 -6 2 -18 -3 -31 -11 -31 -6 0 -6 12 -1 31 8 26 7 29 -6
18 -12 -10 -13 -9 -8 6 6 14 4 16 -6 10 -9 -5 -11 -4 -6 4 4 6 11 9 15 7 11
-7 36 12 28 21 -5 4 -12 1 -16 -6 -5 -7 -11 -9 -14 -4 -7 11 18 45 27 36 4 -4
4 1 0 12 -5 11 -9 14 -12 7 -2 -7 -8 -10 -13 -7 -5 4 -6 0 -4 -7 4 -9 -2 -14
-14 -14 -11 0 -18 3 -15 7 2 4 1 9 -3 12 -5 2 -2 2 5 0 7 -1 10 2 7 7 -3 6 -2
10 3 10 6 0 13 8 17 18 5 13 3 14 -6 5 -13 -13 -62 4 -53 18 3 5 14 4 25 -1
13 -7 19 -7 19 0 0 5 -7 10 -15 10 -26 0 -30 1 -47 17 -10 9 -15 20 -11 26 3
5 -2 16 -12 24 -11 7 -13 13 -7 13 7 0 12 4 12 10 0 5 -3 9 -8 7 -4 -1 -8 2
-9 6 -1 4 -11 19 -22 32 -17 23 -19 71 -2 61 4 -3 8 5 8 16 2 20 2 20 -14 -1
-17 -25 -31 -18 -38 19 -2 13 -8 26 -12 29 -15 11 -48 54 -37 48 7 -4 15 0 18
9 3 8 2 12 -4 9 -6 -3 -10 1 -10 10 0 11 -5 15 -16 11 -8 -3 -12 -2 -9 4 3 6
2 10 -2 10 -5 0 -14 9 -21 21 -8 12 -9 18 -3 14 6 -3 11 -1 11 5 0 6 -10 15
-22 20 -23 9 -10 15 22 10 10 -1 9 3 -5 14 -11 8 -24 15 -30 16 -5 0 -3 -5 5
-10 13 -8 13 -10 -1 -10 -12 0 -16 8 -15 30 0 17 4 30 8 30 5 0 8 4 8 9 0 10
-32 7 -52 -5 -6 -4 -8 -3 -5 3 3 5 -5 17 -18 27 -15 11 -22 25 -20 38 3 15 0
18 -13 13 -9 -3 -13 -3 -9 1 3 4 -2 15 -13 24 -18 16 -18 18 -4 24 9 3 19 4
23 1 4 -2 8 2 8 9 0 8 -6 12 -14 9 -8 -3 -12 0 -10 8 2 8 2 11 0 7 -10 -17
-23 -7 -14 10 8 14 6 18 -10 19 -10 1 -19 -3 -19 -8 0 -6 5 -7 12 -3 8 5 9 2
5 -9 -4 -10 0 -20 11 -26 15 -9 14 -10 -5 -8 -12 0 -20 4 -17 8 2 4 -3 9 -11
13 -15 5 -10 35 8 47 5 3 2 9 -7 12 -8 3 -18 1 -22 -5 -5 -7 -2 -8 7 -3 8 5
10 4 6 0 -11 -12 -38 -15 -31 -4 8 14 -16 40 -30 32 -6 -3 -8 -3 -4 2 4 4 -14
30 -40 57 -26 27 -46 52 -44 55 2 3 -5 11 -15 19 -17 13 -17 14 1 7 14 -5 17
-3 12 6 -5 7 -17 11 -27 8 -10 -3 -24 2 -31 11 -14 16 -13 18 5 41 10 12 9 12
-10 3 -26 -14 -44 -16 -23 -2 13 9 13 10 0 11 -8 1 -18 1 -23 0 -4 0 -6 2 -6
6 3 20 -2 34 -11 28 -6 -3 -13 1 -16 9 -3 9 -10 14 -14 11 -12 -7 2 39 14 48
6 5 0 5 -14 2 -20 -6 -23 -5 -12 6 6 7 12 17 12 23 0 5 -6 1 -14 -10 -10 -13
-11 -23 -4 -32 6 -7 8 -15 4 -19 -3 -3 -6 -1 -6 6 0 7 -4 10 -8 7 -5 -3 -8 8
-8 25 0 16 3 29 8 29 4 0 8 5 8 10 0 6 -8 5 -20 -2 -14 -9 -16 -14 -7 -20 9
-6 9 -8 -1 -8 -8 0 -10 -5 -6 -12 4 -8 3 -10 -2 -5 -5 5 -9 14 -9 20 0 7 -7
12 -15 12 -8 0 -15 7 -15 15 0 8 -7 15 -15 15 -8 1 -14 7 -12 14 2 9 -3 11
-15 7 -9 -4 -14 -4 -10 0 4 5 -2 13 -14 19 -19 11 -19 13 -5 18 12 5 15 3 10
-6 -4 -6 -4 -9 0 -5 11 9 46 -23 39 -36 -3 -6 -3 -8 2 -4 4 4 14 3 21 -3 8 -7
14 -6 20 2 4 7 3 9 -3 6 -6 -4 -24 9 -41 29 -17 20 -35 33 -41 30 -5 -4 -21
-1 -35 5 -24 11 -30 23 -29 55 0 13 -22 13 -34 -1 -4 -4 -3 -5 3 -2 15 9 27
-20 12 -29 -6 -4 -8 -3 -4 4 3 5 0 12 -6 14 -15 5 -17 40 -3 51 6 5 4 7 -5 4
-8 -2 -15 -9 -15 -15 0 -5 -3 -13 -6 -17 -4 -3 -5 12 -4 34 1 22 -1 38 -6 35
-4 -2 -6 -12 -3 -22 4 -13 1 -11 -14 5 -18 20 -21 21 -27 6 -3 -10 -3 -14 1
-10 10 10 34 -12 34 -31 0 -17 -15 -7 -15 11 0 7 -8 11 -17 9 -9 -1 -19 6 -23
18 -3 11 -9 19 -13 17 -4 -1 -8 2 -10 8 -7 20 15 14 26 -7 8 -17 11 -19 11 -6
1 9 6 19 11 21 6 3 5 4 -2 3 -7 -2 -26 6 -43 18 -16 11 -31 19 -33 18 -2 -2
-6 -1 -10 2 -3 3 0 6 6 6 7 0 12 4 12 8 0 5 -7 9 -15 9 -8 0 -12 -4 -9 -9 3
-4 0 -8 -5 -8 -6 0 -11 -5 -11 -11 0 -5 4 -8 9 -4 6 3 14 -3 20 -12 6 -11 11
-13 11 -5 0 7 5 10 11 6 8 -4 7 -9 -2 -15 -21 -13 -29 -11 -29 7 0 8 -5 12
-10 9 -6 -3 -13 0 -16 9 -3 8 -12 12 -20 9 -8 -3 -14 -1 -15 3 0 5 -2 19 -3
32 -3 24 9 30 18 10 2 -7 4 -3 2 9 -1 12 -6 26 -11 30 -4 5 -5 2 -1 -4 4 -8 1
-13 -9 -13 -9 0 -15 -7 -13 -16 2 -10 -3 -19 -10 -21 -13 -5 -12 22 1 45 5 7
4 12 -2 12 -6 0 -11 -5 -11 -11 0 -6 -8 -8 -17 -5 -16 6 -16 5 0 -8 10 -8 14
-17 9 -20 -6 -3 -12 1 -16 9 -3 8 -12 15 -21 15 -8 0 -15 5 -15 11 0 5 -4 7
-10 4 -6 -4 -7 1 -3 12 6 16 5 17 -13 3 -15 -11 -16 -11 -6 0 17 19 15 35 -2
21 -12 -10 -20 -10 -38 0 -13 7 -26 12 -30 11 -5 -1 -7 1 -7 6 3 19 -2 25 -11
12 -7 -10 -10 -11 -10 -2 0 7 7 15 15 18 9 4 20 16 26 28 9 19 9 19 -4 4 -21
-27 -66 -41 -73 -24 -3 8 -12 12 -20 9 -8 -3 -14 0 -14 7 0 6 -5 8 -12 4 -6
-4 -8 -3 -4 4 7 12 -43 64 -55 56 -4 -2 -10 0 -14 6 -3 5 1 10 9 10 19 0 21
16 4 26 -6 4 -8 3 -5 -3 8 -13 -16 -25 -55 -29 -29 -3 -46 10 -28 21 6 4 17 1
25 -5 9 -7 15 -8 15 -2 0 14 -24 22 -49 15 -12 -3 -18 -10 -14 -17 3 -6 -3 -3
-14 7 -11 9 -22 15 -24 12 -3 -2 -4 8 -3 24 1 17 -3 28 -12 28 -7 0 -11 -3 -9
-7 2 -3 -5 -11 -15 -18 -12 -7 -21 -8 -25 -2 -4 6 -12 7 -18 3 -7 -4 -6 1 2
10 10 13 17 15 27 6 10 -8 14 -8 14 0 0 9 -8 13 -30 13 -3 1 -21 -2 -40 -5
-19 -3 -29 -3 -22 0 6 2 10 9 6 14 -3 5 -13 5 -24 -1 -13 -7 -21 -6 -30 5 -7
8 -9 15 -4 15 5 0 1 5 -9 11 -9 6 -15 14 -12 20 4 5 -2 6 -11 2 -12 -4 -15 -3
-10 5 4 7 3 12 -3 12 -5 0 -9 -9 -8 -20 1 -12 7 -18 14 -16 7 3 15 1 19 -5 10
-17 -3 -21 -28 -8 -12 7 -29 12 -37 10 -9 -1 -12 3 -8 13 3 8 1 18 -5 22 -6 4
-8 3 -5 -3 4 -6 1 -13 -7 -16 -16 -6 -26 1 -26 17 0 6 5 4 10 -4 6 -9 10 -10
10 -3 0 6 -5 15 -10 18 -6 4 -7 12 -4 18 4 7 4 9 -1 5 -4 -4 -14 -3 -22 4 -10
8 -17 8 -25 0 -16 -16 -49 14 -42 36 5 14 4 14 -6 -1 -6 -9 -15 -15 -21 -12
-5 4 -9 1 -9 -4 0 -6 -4 -11 -10 -11 -5 0 -7 6 -4 13 2 7 -3 21 -11 32 -16 19
-16 19 -6 -2 13 -26 14 -36 3 -29 -4 2 -14 0 -22 -6 -12 -8 -12 -9 2 -4 10 3
20 1 24 -5 3 -5 14 -7 24 -4 10 3 21 1 25 -5 3 -6 11 -7 17 -4 7 5 8 2 3 -6
-5 -8 -4 -11 2 -7 6 4 14 0 17 -8 5 -13 2 -14 -17 -3 -12 7 -26 13 -32 14 -5
1 -22 4 -37 7 -14 3 -35 10 -45 15 -10 5 -24 7 -30 5 -7 -3 -13 0 -13 6 0 5 9
8 20 6 11 -2 22 1 26 6 10 17 -4 23 -21 9 -8 -7 -15 -9 -15 -5 0 5 -8 1 -19
-9 -16 -14 -20 -15 -30 -2 -7 8 -20 12 -29 9 -14 -4 -15 -3 -2 5 8 6 18 8 24
5 5 -3 6 -1 3 5 -4 5 -16 8 -26 5 -13 -3 -21 2 -26 17 -4 13 -10 18 -14 13 -9
-13 -81 -16 -81 -3 0 6 6 8 13 4 8 -5 8 -2 -2 9 -7 9 -16 17 -19 17 -3 0 -2
-3 1 -6 3 -4 2 -16 -4 -27 -6 -10 -7 -17 -2 -14 5 3 15 2 23 -3 10 -6 1 -8
-25 -4 -22 3 -45 5 -52 6 -7 1 -12 4 -11 7 2 20 -4 23 -15 7 -12 -16 -13 -16
-13 1 0 13 8 20 23 21 14 1 22 -3 20 -11 -1 -6 6 -11 15 -11 10 1 15 -3 11 -9
-3 -5 -2 -7 4 -4 11 7 12 62 1 73 -4 3 -5 -6 -2 -20 4 -24 3 -26 -15 -16 -26
13 -66 7 -66 -11 0 -9 -13 -14 -37 -14 -20 -1 -35 2 -32 7 3 4 0 8 -5 8 -6 0
-11 -5 -11 -12 0 -6 -6 -4 -13 7 -9 11 -16 14 -20 7 -7 -11 -47 -5 -47 8 0 4
12 7 27 6 14 0 27 5 29 12 1 7 0 8 -3 2 -3 -7 -11 -7 -24 0 -10 6 -19 7 -19 3
0 -4 -5 -1 -11 7 -9 13 -10 12 -5 -2 3 -10 1 -18 -4 -18 -5 0 -7 -8 -4 -17 5
-15 4 -15 -4 -3 -6 8 -8 19 -4 25 3 5 -2 3 -13 -5 -22 -18 -99 -22 -85 -5 6 7
7 15 3 18 -3 4 -1 7 6 7 7 0 11 -6 8 -13 -3 -8 1 -14 9 -14 12 0 12 4 0 22
-11 17 -12 25 -3 34 6 6 8 11 5 11 -4 0 -14 -10 -22 -22z m-372 -43 c3 -8 1
-15 -4 -15 -6 0 -10 7 -10 15 0 8 2 15 4 15 2 0 6 -7 10 -15z m-89 -16 c-4 -5
-12 -9 -18 -8 -9 0 -8 2 1 6 6 2 9 10 6 15 -4 7 -2 8 5 4 6 -4 9 -12 6 -17z
m-192 -13 c4 -9 -2 -13 -16 -12 -12 1 -26 -3 -30 -9 -5 -6 -7 -4 -4 5 2 8 11
14 21 12 9 -2 16 2 16 8 0 14 7 13 13 -4z m-113 -6 c0 -5 5 -10 11 -10 5 0 8
4 5 9 -4 5 0 8 6 7 19 -2 16 -20 -3 -23 -10 -1 -22 4 -29 12 -9 11 -9 15 -1
15 6 0 11 -4 11 -10z m1238 -8 c12 10 14 10 8 1 -4 -7 -2 -13 3 -13 6 0 11 -5
11 -11 0 -8 -5 -8 -15 1 -12 10 -15 10 -15 -1 0 -12 -2 -12 -9 0 -5 8 -14 10
-22 5 -11 -6 -10 -3 1 10 9 12 16 14 18 7 3 -9 8 -8 20 1z m332 -77 c9 -11 9
-15 1 -15 -7 0 -9 -4 -6 -10 4 -6 -1 -7 -11 -3 -11 4 -13 8 -6 11 7 2 12 8 12
13 0 4 -7 5 -17 2 -11 -4 -14 -3 -9 5 10 16 21 15 36 -3z m-1960 -22 c0 -9 -3
-13 -7 -10 -3 4 -17 0 -29 -8 -13 -8 -25 -11 -28 -6 -8 12 21 34 33 27 5 -4
12 -2 16 4 9 15 15 12 15 -7z m-76 -42 c-4 -3 -9 0 -11 7 -3 6 -9 12 -14 12
-6 0 -7 -4 -4 -10 3 -6 -1 -7 -10 -4 -12 5 -13 9 -4 20 10 12 15 12 30 -2 11
-10 16 -20 13 -23z m2356 -60 c0 -5 -7 -12 -16 -15 -14 -5 -15 -4 -4 9 14 17
20 19 20 6z m-2682 -66 c-3 -3 -9 2 -12 12 -6 14 -5 15 5 6 7 -7 10 -15 7 -18z
m2844 -10 c3 3 13 -4 23 -15 16 -18 16 -20 2 -20 -10 0 -16 6 -14 13 1 6 -5
11 -14 9 -9 -1 -20 5 -23 14 -5 13 -4 14 7 6 8 -7 16 -10 19 -7z m-37 -5 c3
-6 -1 -7 -9 -4 -18 7 -21 14 -7 14 6 0 13 -4 16 -10z m1350 -1137 c-2 -10 -4
-22 -4 -28 -1 -5 -5 -3 -11 5 -5 9 -5 19 2 27 14 17 17 16 13 -4z m-5622 -109
c-3 -9 0 -20 8 -25 11 -7 11 -9 1 -9 -7 0 -10 -5 -7 -10 4 -6 1 -9 -7 -8 -7 2
-12 -5 -12 -14 1 -14 -2 -16 -17 -7 -25 13 -24 26 2 39 11 7 18 14 15 17 -3 4
-1 12 5 20 15 18 20 17 12 -3z m-85 -196 c-6 -16 -21 -14 -24 4 -1 11 3 15 12
11 8 -3 13 -10 12 -15z m-48 -88 c-7 -4 -9 -14 -6 -21 4 -8 1 -5 -8 5 -18 22
-12 38 10 29 12 -4 12 -8 4 -13z m-76 -161 c-9 -10 -13 -22 -9 -28 4 -7 -1 -8
-12 -4 -16 6 -16 5 -4 -10 8 -10 9 -17 3 -17 -21 0 -24 21 -6 41 10 11 12 19
5 19 -8 0 -8 5 1 19 9 15 15 17 25 9 11 -9 11 -14 -3 -29z m6121 13 c-3 -3
-11 0 -18 7 -9 10 -8 11 6 5 10 -3 15 -9 12 -12z m22 -57 c0 -8 -4 -15 -9 -15
-10 0 -11 14 -1 23 9 10 10 9 10 -8z m-6222 -183 c-3 -3 -11 0 -18 7 -9 10 -8
11 6 5 10 -3 15 -9 12 -12z m6333 -130 c-20 -27 -22 -28 -15 -9 4 10 1 17 -6
17 -8 0 -7 4 3 9 21 14 33 2 18 -17z m-6503 -619 c0 -10 -5 -19 -10 -20 -9 -3
-10 2 -6 27 2 18 18 11 16 -7z m-5 -74 c-6 -10 -8 -19 -5 -19 4 0 3 -5 0 -10
-4 -6 -11 -8 -16 -4 -6 4 -6 10 1 19 6 7 10 17 9 21 -3 18 1 25 11 19 7 -4 7
-13 0 -26z m-5 -380 c-7 -11 -35 -12 -35 -1 0 4 9 8 20 9 11 1 18 -2 15 -8z
m13 -310 c-11 -7 -11 -9 1 -9 7 0 11 -6 8 -14 -3 -8 -3 -17 1 -20 11 -12 9
-44 -4 -39 -7 2 -11 12 -9 21 1 9 0 22 -3 27 -13 21 -9 53 5 48 12 -5 12 -7 1
-14z m25 -116 c-9 -3 -9 -10 2 -27 13 -19 13 -23 1 -23 -8 0 -12 6 -10 12 3 7
-2 18 -11 25 -8 7 -15 19 -15 27 0 11 4 12 22 2 14 -7 18 -14 11 -16z m281
-886 c-4 -12 -44 -22 -44 -11 0 4 30 18 47 23 1 1 0 -5 -3 -12z m5861 -307 c3
-5 1 -10 -4 -10 -6 0 -11 5 -11 10 0 6 2 10 4 10 3 0 8 -4 11 -10z m-65 -75
c0 -15 -52 -105 -60 -105 -15 0 -12 17 5 24 8 3 15 11 14 18 0 10 -2 10 -6 1
-2 -7 -9 -13 -14 -13 -5 0 -2 11 7 25 9 14 21 22 27 18 6 -4 8 0 4 9 -3 9 -3
19 0 22 8 7 23 8 23 1z m-5485 -145 c-3 -5 -1 -10 4 -10 6 0 11 -4 11 -8 0 -5
-6 -9 -14 -9 -7 0 -12 7 -11 16 5 22 4 21 11 21 3 0 2 -4 -1 -10z m5325 -128
c0 -2 -4 0 -10 3 -5 3 -20 1 -32 -5 -22 -11 -22 -10 -4 4 11 9 14 16 7 16 -7
0 -10 4 -6 10 5 8 45 -17 45 -28z m-5192 -34 c6 -7 11 -17 11 -23 1 -5 5 -10
10 -10 5 0 13 -4 18 -9 5 -5 3 -6 -4 -2 -8 5 -13 1 -13 -10 0 -16 -2 -16 -20
1 -14 12 -17 22 -11 28 7 7 4 15 -7 23 -9 8 -12 14 -6 14 6 0 16 -6 22 -12z
m4772 -358 c-9 -6 -11 -10 -3 -10 7 0 10 -7 7 -15 -12 -30 -25 -1 -15 33 1 1
7 2 14 2 8 0 7 -4 -3 -10z m-140 -135 c0 -2 -9 -9 -19 -15 -14 -7 -22 -7 -27
2 -4 7 -3 8 4 4 7 -4 12 -2 12 3 0 6 7 11 15 11 8 0 15 -2 15 -5z m-3996 -106
c-3 -5 0 -9 6 -9 6 0 8 -5 4 -12 -6 -9 -9 -9 -12 0 -2 7 -9 9 -14 6 -7 -4 -8
-2 -4 4 4 7 1 12 -6 13 -10 0 -10 2 0 6 6 2 9 10 5 16 -4 7 1 6 10 -2 9 -7 14
-17 11 -22z m116 -99 c0 -5 -5 -10 -11 -10 -5 0 -7 5 -4 10 3 6 8 10 11 10 2
0 4 -4 4 -10z m3425 -89 c3 -5 2 -12 -3 -15 -5 -3 -9 1 -9 9 0 17 3 19 12 6z
m-32 -12 c-6 -6 -9 -18 -6 -27 4 -10 2 -13 -5 -8 -16 9 -15 33 1 39 20 9 22 8
10 -4z m-109 -58 c3 -5 -1 -14 -8 -20 -12 -10 -14 -9 -11 6 2 10 4 19 4 21 2
5 10 2 15 -7z m-2305 -252 c-15 -9 -32 -2 -24 11 3 5 13 6 21 3 12 -4 13 -8 3
-14z m1634 -9 c10 -12 9 -12 -5 -2 -11 9 -17 10 -20 2 -2 -6 -10 -12 -18 -13
-8 -2 -20 -6 -26 -10 -7 -4 -14 0 -17 8 -4 10 -1 12 10 8 12 -5 14 -3 8 7 -5
8 -4 11 3 6 6 -3 13 -2 16 3 8 13 34 8 49 -9z m-107 -26 c-5 -14 -9 -15 -19
-5 -9 9 -9 14 3 21 18 11 24 6 16 -16z m-1182 -29 c-4 -8 -8 -15 -10 -15 -2 0
-4 7 -4 15 0 8 4 15 10 15 5 0 7 -7 4 -15z m578 -29 c3 2 8 -1 10 -8 4 -8 -3
-14 -18 -14 -13 -1 -24 3 -24 8 0 6 -6 5 -15 -2 -20 -17 -19 -6 1 15 11 11 20
13 28 5 7 -5 15 -7 18 -4z"/>
<path d="M624 5208 l-19 -23 23 19 c21 18 27 26 19 26 -2 0 -12 -10 -23 -22z"/>
<path d="M3433 6868 c1 -7 -7 -13 -17 -13 -11 0 -21 -6 -24 -13 -2 -6 -8 -9
-13 -6 -6 3 -5 11 2 20 8 10 8 14 0 14 -6 0 -11 -4 -11 -10 0 -5 -6 -10 -14
-10 -8 0 -17 -7 -20 -16 -5 -14 -4 -15 9 -4 12 10 18 10 29 1 11 -10 17 -8 25
6 6 10 11 13 11 8 0 -6 8 -11 19 -12 13 -1 19 5 19 23 0 13 -4 24 -9 24 -5 0
-8 -6 -6 -12z"/>
<path d="M3215 6860 c3 -5 8 -10 11 -10 2 0 4 5 4 10 0 6 -5 10 -11 10 -5 0
-7 -4 -4 -10z"/>
<path d="M3463 6853 c1 -17 4 -19 14 -11 9 7 13 7 13 0 0 -6 9 -9 20 -7 11 2
22 -1 25 -6 12 -19 25 2 14 23 -6 11 -14 16 -18 11 -8 -12 -54 -12 -63 1 -4 6
-6 1 -5 -11z"/>
<path d="M3580 6859 c0 -5 -4 -7 -10 -4 -14 9 -12 -1 3 -13 10 -8 13 -6 14 9
1 10 0 19 -3 19 -2 0 -4 -5 -4 -11z"/>
<path d="M3609 6854 c-7 -8 -6 -14 1 -19 6 -4 10 -3 9 2 -4 20 2 26 14 12 6
-8 11 -12 10 -10 -2 2 1 9 7 15 6 8 3 12 -11 12 -11 0 -25 -6 -30 -12z"/>
<path d="M3713 6849 c5 -28 13 -31 28 -12 12 14 12 16 0 8 -11 -6 -13 -4 -9 7
4 9 0 15 -8 15 -7 0 -12 -8 -11 -18z"/>
<path d="M3755 6860 c3 -5 8 -10 11 -10 2 0 4 5 4 10 0 6 -5 10 -11 10 -5 0
-7 -4 -4 -10z"/>
<path d="M3815 6860 c3 -5 8 -10 11 -10 2 0 4 5 4 10 0 6 -5 10 -11 10 -5 0
-7 -4 -4 -10z"/>
<path d="M3176 6844 c-5 -13 -9 -14 -22 -3 -13 10 -19 9 -37 -10 -17 -17 -18
-21 -4 -15 9 3 17 10 17 15 0 5 5 9 11 9 6 0 9 -7 5 -15 -4 -13 -2 -13 14 -5
21 11 34 29 27 36 -2 3 -7 -3 -11 -12z"/>
<path d="M3863 6827 c0 -12 1 -16 4 -9 4 10 8 10 20 0 8 -7 26 -13 39 -14 19
-1 22 2 13 13 -9 9 -8 13 0 13 6 0 11 4 11 8 0 5 -13 8 -29 8 -17 0 -28 -3
-25 -8 7 -11 -10 -10 -22 2 -6 6 -10 2 -11 -13z m64 0 c0 -8 -6 -14 -14 -14
-14 0 -17 10 -6 20 10 11 20 8 20 -6z"/>
<path d="M4097 6819 c7 -7 15 -10 18 -7 3 3 -2 9 -12 12 -14 6 -15 5 -6 -5z"/>
<path d="M4177 6824 c-8 -8 3 -34 15 -34 7 0 6 5 -1 13 -6 8 -8 17 -4 20 3 4
4 7 1 7 -2 0 -7 -3 -11 -6z"/>
<path d="M2765 6800 c-3 -5 -1 -10 4 -10 6 0 11 5 11 10 0 6 -2 10 -4 10 -3 0
-8 -4 -11 -10z"/>
<path d="M4215 6800 c-3 -5 -1 -10 4 -10 6 0 11 5 11 10 0 6 -2 10 -4 10 -3 0
-8 -4 -11 -10z"/>
<path d="M4273 6796 c3 -8 2 -17 -4 -20 -5 -2 -4 -3 2 -2 15 3 21 36 7 36 -6
0 -8 -6 -5 -14z"/>
<path d="M2659 6783 c-1 -5 -2 -12 -4 -18 -1 -5 -3 -16 -3 -23 -1 -7 -6 -11
-11 -7 -5 3 -12 1 -15 -4 -4 -5 -2 -12 3 -15 5 -4 12 -2 16 4 4 6 10 8 15 5 5
-3 15 1 23 9 8 8 18 12 23 8 5 -4 2 2 -6 13 -21 30 -24 32 -17 13 3 -10 2 -20
-3 -23 -9 -5 -15 15 -11 38 0 4 -1 7 -4 7 -3 0 -6 -3 -6 -7z"/>
<path d="M2710 6771 c5 -11 15 -23 21 -27 6 -3 3 5 -6 20 -20 30 -30 35 -15 7z"/>
<path d="M2786 6774 c-4 -9 -4 -19 -1 -22 3 -3 5 0 5 7 0 7 7 11 14 8 10 -4
13 -1 9 9 -7 19 -19 18 -27 -2z"/>
<path d="M4230 6771 c-7 -13 -7 -22 0 -26 12 -7 12 -7 15 23 3 27 -1 28 -15 3z"/>
<path d="M2617 6756 c-4 -10 -1 -13 8 -9 8 3 12 9 9 14 -7 12 -11 11 -17 -5z"/>
<path d="M2510 6746 c0 -2 7 -7 16 -10 8 -3 12 -2 9 4 -6 10 -25 14 -25 6z"/>
<path d="M4430 6739 c0 -5 5 -7 10 -4 6 3 10 8 10 11 0 2 -4 4 -10 4 -5 0 -10
-5 -10 -11z"/>
<path d="M2578 6733 c6 -2 9 -9 6 -14 -3 -6 -12 -5 -22 3 -13 11 -14 11 -7 -1
6 -11 4 -13 -8 -8 -11 4 -14 2 -10 -9 3 -9 9 -11 17 -6 6 5 19 8 28 7 10 -2
21 1 24 7 7 11 -13 28 -31 27 -5 0 -4 -3 3 -6z"/>
<path d="M2424 6722 c4 -3 14 -7 22 -8 9 -1 13 0 10 4 -4 3 -14 7 -22 8 -9 1
-13 0 -10 -4z"/>
<path d="M4510 6710 c0 -5 5 -10 11 -10 5 0 7 5 4 10 -3 6 -8 10 -11 10 -2 0
-4 -4 -4 -10z"/>
<path d="M2356 6685 c4 -8 11 -15 16 -15 6 0 5 6 -2 15 -7 8 -14 15 -16 15 -2
0 -1 -7 2 -15z"/>
<path d="M4544 6682 c0 -10 6 -19 13 -19 8 0 9 6 2 19 -5 10 -11 18 -12 18 -2
0 -3 -8 -3 -18z"/>
<path d="M4620 6667 c3 -3 14 -7 25 -9 11 -1 24 -7 28 -13 5 -6 7 -4 5 4 -2 8
-17 16 -33 18 -16 3 -27 2 -25 0z"/>
<path d="M4690 6635 c0 -8 4 -15 10 -15 5 0 7 7 4 15 -4 8 -8 15 -10 15 -2 0
-4 -7 -4 -15z"/>
<path d="M4635 6630 c4 -6 11 -8 16 -5 14 9 11 15 -7 15 -8 0 -12 -5 -9 -10z"/>
<path d="M2243 6615 c-19 -20 8 -26 32 -8 15 12 16 14 3 10 -9 -3 -18 -2 -20
3 -2 4 -8 2 -15 -5z"/>
<path d="M4826 6602 c-5 -9 -1 -47 5 -46 2 0 13 6 24 12 l20 12 -20 -2 c-14
-2 -20 2 -19 15 2 18 -2 22 -10 9z"/>
<path d="M4856 6602 c-3 -5 1 -9 9 -9 8 0 12 4 9 9 -3 4 -7 8 -9 8 -2 0 -6 -4
-9 -8z"/>
<path d="M4916 6555 c4 -8 8 -15 10 -15 2 0 4 7 4 15 0 8 -4 15 -10 15 -5 0
-7 -7 -4 -15z"/>
<path d="M4999 6553 c-13 -16 -12 -17 4 -4 9 7 17 15 17 17 0 8 -8 3 -21 -13z"/>
<path d="M5013 6515 c0 -8 4 -12 9 -9 5 3 6 10 3 15 -9 13 -12 11 -12 -6z"/>
<path d="M5031 6491 c-12 -8 -12 -12 -2 -25 7 -9 17 -13 22 -11 4 3 12 -3 18
-12 6 -11 11 -13 11 -5 0 7 4 11 8 8 5 -3 9 1 9 9 0 10 -4 12 -12 5 -8 -7 -17
-4 -29 9 -13 15 -14 20 -4 24 7 3 9 6 3 6 -5 0 -16 -3 -24 -8z"/>
<path d="M5073 6485 c0 -8 4 -12 9 -9 5 3 6 10 3 15 -9 13 -12 11 -12 -6z"/>
<path d="M1859 6473 c-13 -16 -12 -17 4 -4 9 7 17 15 17 17 0 8 -8 3 -21 -13z"/>
<path d="M1946 6448 c3 -5 10 -6 15 -3 13 9 11 12 -6 12 -8 0 -12 -4 -9 -9z"/>
<path d="M5156 6436 c5 -13 4 -17 -4 -12 -21 13 -22 -13 -1 -28 23 -15 39 -13
39 5 0 6 -9 7 -22 3 -21 -6 -21 -5 -9 10 11 13 12 19 2 29 -10 9 -11 8 -5 -7z"/>
<path d="M1804 6414 c-18 -14 -18 -15 4 -4 12 6 22 13 22 15 0 8 -5 6 -26 -11z"/>
<path d="M5216 6397 c3 -10 9 -15 12 -12 3 3 0 11 -7 18 -10 9 -11 8 -5 -6z"/>
<path d="M1670 6379 c0 -5 5 -7 10 -4 6 3 10 8 10 11 0 2 -4 4 -10 4 -5 0 -10
-5 -10 -11z"/>
<path d="M5316 6382 c-3 -5 1 -9 9 -9 8 0 12 4 9 9 -3 4 -7 8 -9 8 -2 0 -6 -4
-9 -8z"/>
<path d="M5230 6361 c0 -17 28 -20 47 -5 13 10 14 14 3 12 -8 -2 -18 -7 -22
-13 -5 -6 -8 -5 -8 3 0 6 -4 12 -10 12 -5 0 -10 -4 -10 -9z"/>
<path d="M1673 6345 c0 -8 4 -12 9 -9 5 3 6 10 3 15 -9 13 -12 11 -12 -6z"/>
<path d="M5336 6281 c9 -9 34 -9 34 -1 0 5 -9 8 -20 7 -10 -1 -17 -3 -14 -6z"/>
<path d="M1530 6223 c-7 -21 -15 -32 -17 -25 -3 6 -9 12 -14 12 -6 0 -7 -4 -4
-10 3 -5 0 -10 -7 -10 -10 0 -9 -3 2 -10 9 -5 19 -5 26 0 6 6 13 7 17 4 3 -3
11 4 17 16 9 16 9 20 1 15 -8 -5 -10 1 -5 19 9 39 0 31 -16 -11z"/>
<path d="M1394 6169 c-3 -6 -2 -15 3 -20 5 -5 9 -1 9 11 0 23 -2 24 -12 9z"/>
<path d="M5570 6160 c0 -5 5 -10 11 -10 5 0 7 5 4 10 -3 6 -8 10 -11 10 -2 0
-4 -4 -4 -10z"/>
<path d="M5596 6121 c-3 -4 1 -17 10 -27 14 -18 15 -18 5 2 -6 12 -7 24 -4 28
3 3 4 6 0 6 -3 0 -8 -4 -11 -9z"/>
<path d="M5625 6119 c-4 -6 -5 -12 -2 -15 2 -3 7 2 10 11 7 17 1 20 -8 4z"/>
<path d="M1350 6100 c-9 -6 -10 -10 -3 -10 6 0 15 5 18 10 8 12 4 12 -15 0z"/>
<path d="M5655 6100 c3 -5 8 -10 11 -10 2 0 4 5 4 10 0 6 -5 10 -11 10 -5 0
-7 -4 -4 -10z"/>
<path d="M1315 6081 c-3 -5 -1 -12 5 -16 6 -4 8 -11 4 -16 -3 -5 -9 -7 -14 -4
-5 3 -12 0 -16 -6 -3 -6 -1 -15 6 -19 15 -9 47 8 55 29 3 9 3 12 -1 9 -8 -8
-34 14 -27 25 2 4 2 7 -1 7 -3 0 -7 -4 -11 -9z m25 -35 c0 -2 -6 -9 -14 -15
-11 -9 -16 -9 -22 0 -4 7 -3 9 4 5 6 -3 13 -2 17 4 6 10 15 14 15 6z"/>
<path d="M5630 6079 c0 -5 5 -7 10 -4 6 3 10 8 10 11 0 2 -4 4 -10 4 -5 0 -10
-5 -10 -11z"/>
<path d="M5696 6058 c3 -4 11 -5 19 -1 21 7 19 12 -4 10 -11 0 -18 -5 -15 -9z"/>
<path d="M1216 6027 c3 -10 9 -15 12 -12 3 3 0 11 -7 18 -10 9 -11 8 -5 -6z"/>
<path d="M5717 6029 c7 -7 15 -10 18 -7 3 3 -2 9 -12 12 -14 6 -15 5 -6 -5z"/>
<path d="M1262 6005 c-8 -16 -18 -25 -26 -22 -10 4 -12 -1 -9 -16 4 -18 3 -19
-6 -7 -10 13 -11 13 -11 0 0 -13 -1 -13 -10 0 -6 9 -10 10 -10 3 0 -6 5 -15
11 -19 8 -4 7 -10 -1 -18 -14 -14 -33 -15 -42 -1 -5 6 -8 6 -8 -2 0 -6 5 -15
10 -18 6 -3 10 -11 10 -17 0 -6 -9 -3 -20 7 -11 10 -20 13 -20 7 0 -6 6 -12
13 -15 6 -2 9 -8 5 -12 -4 -4 -14 -2 -22 4 -11 9 -16 9 -22 0 -4 -7 -3 -9 4
-5 6 3 13 2 17 -4 3 -5 2 -10 -3 -10 -6 0 -13 -8 -16 -17 -6 -15 -4 -15 14 2
11 10 20 14 20 9 0 -4 18 12 41 36 22 25 45 44 50 43 5 -2 8 0 8 5 -3 18 2 33
10 28 15 -10 44 31 34 49 -8 14 -11 12 -21 -10z m4 -23 c-17 -16 -18 -16 -5 5
7 12 15 20 18 17 3 -2 -3 -12 -13 -22z"/>
<path d="M5752 6013 c2 -6 -6 -19 -17 -27 -13 -11 -15 -15 -5 -14 27 5 44 28
31 41 -10 9 -12 9 -9 0z"/>
<path d="M1156 5962 c-3 -5 1 -9 9 -9 8 0 12 4 9 9 -3 4 -7 8 -9 8 -2 0 -6 -4
-9 -8z"/>
<path d="M5836 5915 c-15 -15 -12 -46 4 -42 5 1 16 -7 25 -18 9 -11 14 -15 11
-8 -4 6 2 14 11 16 15 4 15 5 -2 6 -21 2 -67 31 -48 31 6 0 13 7 17 15 7 19 1
19 -18 0z"/>
<path d="M1076 5887 c3 -10 9 -15 12 -12 3 3 0 11 -7 18 -10 9 -11 8 -5 -6z"/>
<path d="M5860 5896 c0 -2 7 -7 16 -10 8 -3 12 -2 9 4 -6 10 -25 14 -25 6z"/>
<path d="M5890 5839 c0 -5 5 -7 10 -4 6 3 10 8 10 11 0 2 -4 4 -10 4 -5 0 -10
-5 -10 -11z"/>
<path d="M5946 5838 c3 -5 10 -6 15 -3 13 9 11 12 -6 12 -8 0 -12 -4 -9 -9z"/>
<path d="M1043 5817 c-3 -6 -1 -7 5 -3 15 9 15 1 1 -25 -5 -11 -14 -17 -19
-14 -6 3 -7 -1 -4 -9 4 -11 0 -14 -16 -11 -17 3 -19 1 -11 -9 6 -7 10 -15 8
-17 -1 -3 8 6 21 19 13 13 22 18 22 10 0 -13 40 46 40 60 0 11 -40 11 -47 -1z
m47 -1 c0 -2 -7 -9 -15 -16 -13 -11 -14 -10 -9 4 5 14 24 23 24 12z"/>
<path d="M5922 5815 c-10 -12 -10 -15 0 -15 10 0 10 -2 -1 -9 -9 -6 -10 -11
-2 -15 6 -4 11 -2 11 4 0 6 4 9 8 6 13 -8 77 -18 70 -11 -3 3 -18 8 -34 11
-37 7 -44 12 -37 29 7 19 2 18 -15 0z"/>
<path d="M995 5780 c3 -5 8 -10 11 -10 2 0 4 5 4 10 0 6 -5 10 -11 10 -5 0 -7
-4 -4 -10z"/>
<path d="M5984 5752 c-20 -15 -10 -31 50 -91 45 -44 66 -59 71 -50 5 8 4 10
-3 5 -7 -4 -12 -3 -12 2 0 19 14 21 34 5 l21 -18 -19 23 c-13 15 -23 19 -30
12 -5 -5 -14 -10 -20 -10 -6 0 -5 5 2 12 7 7 12 16 12 22 0 5 -6 2 -13 -7 -11
-16 -13 -16 -29 3 -14 16 -15 20 -4 20 8 0 17 -6 19 -12 4 -10 6 -10 6 0 1 7
-7 16 -16 19 -25 10 -43 29 -35 38 4 4 1 5 -7 3 -7 -1 -16 3 -18 10 -3 8 1 10
11 6 9 -3 16 -4 16 -1 0 9 -27 15 -36 9z m26 -47 c13 -14 21 -25 18 -25 -2 0
-15 11 -28 25 -13 14 -21 25 -18 25 2 0 15 -11 28 -25z"/>
<path d="M977 5733 c-6 -13 -3 -33 6 -33 28 0 30 2 14 11 -9 6 -15 14 -12 20
4 5 4 9 1 9 -3 0 -7 -3 -9 -7z"/>
<path d="M6030 5731 c0 -6 4 -13 10 -16 6 -3 7 1 4 9 -7 18 -14 21 -14 7z"/>
<path d="M906 5682 c-3 -5 1 -9 9 -9 8 0 15 4 15 9 0 4 -4 8 -9 8 -6 0 -12 -4
-15 -8z"/>
<path d="M926 5651 c-11 -12 -14 -21 -7 -26 11 -6 15 1 12 19 -1 5 4 6 12 3 8
-3 14 1 14 9 0 19 -11 18 -31 -5z"/>
<path d="M894 5623 c5 -9 1 -13 -11 -13 -15 0 -16 -2 -3 -10 8 -5 18 -10 22
-10 9 0 4 28 -7 37 -4 4 -5 2 -1 -4z"/>
<path d="M6170 5599 c0 -5 5 -7 10 -4 6 3 10 8 10 11 0 2 -4 4 -10 4 -5 0 -10
-5 -10 -11z"/>
<path d="M795 5500 c3 -5 8 -10 11 -10 2 0 4 5 4 10 0 6 -5 10 -11 10 -5 0 -7
-4 -4 -10z"/>
<path d="M6179 5488 c15 -21 31 -23 31 -6 0 6 -3 8 -7 5 -3 -4 -13 -1 -22 6
-14 11 -14 10 -2 -5z"/>
<path d="M6232 5471 c-11 -7 -11 -9 0 -14 9 -3 15 1 15 9 0 8 -1 14 -1 14 -1
0 -7 -4 -14 -9z"/>
<path d="M706 5442 c-2 -4 4 -8 14 -8 10 0 16 4 14 8 -3 4 -9 8 -14 8 -5 0
-11 -4 -14 -8z"/>
<path d="M770 5442 c0 -5 -10 -14 -22 -19 -23 -11 -23 -11 3 -9 16 1 26 7 26
18 1 10 0 18 -3 18 -2 0 -4 -4 -4 -8z"/>
<path d="M6213 5435 c0 -8 3 -13 5 -10 3 3 12 -4 19 -15 8 -11 18 -18 23 -15
13 8 0 35 -16 35 -8 0 -14 5 -14 10 0 6 -4 10 -8 10 -5 0 -9 -7 -9 -15z"/>
<path d="M6276 5427 c3 -10 9 -15 12 -12 3 3 0 11 -7 18 -10 9 -11 8 -5 -6z"/>
<path d="M720 5396 c0 -2 7 -7 16 -10 8 -3 12 -2 9 4 -6 10 -25 14 -25 6z"/>
<path d="M690 5380 c-9 -6 -10 -10 -3 -10 6 0 15 5 18 10 8 12 4 12 -15 0z"/>
<path d="M697 5354 c-16 -13 -23 -24 -18 -24 6 0 11 -5 11 -11 0 -6 -7 -9 -15
-6 -16 7 -30 -8 -16 -17 5 -3 20 3 32 14 15 12 19 19 10 20 -11 0 -11 3 -1 15
7 8 16 13 20 10 5 -3 11 -1 14 4 13 21 -11 18 -37 -5z"/>
<path d="M6312 5351 c-11 -6 -10 -10 4 -15 9 -4 22 -2 28 4 8 8 6 9 -8 4 -13
-5 -17 -4 -12 4 8 14 6 15 -12 3z"/>
<path d="M6355 5320 c-3 -5 -1 -10 4 -10 6 0 11 5 11 10 0 6 -2 10 -4 10 -3 0
-8 -4 -11 -10z"/>
<path d="M6335 5270 c2 -25 10 -33 38 -37 l22 -4 -22 16 c-13 9 -23 23 -23 31
0 8 -4 14 -8 14 -5 0 -8 -9 -7 -20z"/>
<path d="M6375 5271 c-3 -5 -2 -12 3 -15 5 -3 9 1 9 9 0 17 -3 19 -12 6z"/>
<path d="M6392 5221 c-11 -7 -11 -9 0 -14 9 -3 15 1 15 9 0 8 -1 14 -1 14 -1
0 -7 -4 -14 -9z"/>
<path d="M570 5180 c0 -5 5 -10 11 -10 5 0 7 5 4 10 -3 6 -8 10 -11 10 -2 0
-4 -4 -4 -10z"/>
<path d="M6410 5179 c0 -5 -4 -8 -9 -4 -19 11 -20 -13 -2 -29 12 -11 21 -13
25 -7 4 5 2 12 -3 16 -6 3 -8 12 -4 20 3 8 2 15 -1 15 -3 0 -6 -5 -6 -11z m1
-26 c13 -16 12 -17 -3 -4 -10 7 -18 15 -18 17 0 8 8 3 21 -13z"/>
<path d="M568 5149 c12 -14 19 -28 16 -32 -4 -3 -14 3 -24 15 -12 15 -19 18
-24 9 -4 -6 -4 -11 1 -10 20 3 25 -2 13 -16 -11 -13 -10 -14 5 -9 14 6 16 4
10 -7 -5 -8 4 -3 19 11 22 20 24 26 12 28 -9 2 -13 9 -10 15 4 7 4 9 -1 5 -4
-4 -15 -2 -24 4 -9 7 -6 1 7 -13z"/>
<path d="M6433 5128 c-5 -7 -8 -19 -7 -25 1 -7 2 -19 3 -25 1 -8 7 -4 13 6 8
15 8 21 -1 24 -9 3 -9 7 0 18 6 8 9 14 6 14 -2 0 -9 -6 -14 -12z"/>
<path d="M486 5102 c-3 -5 1 -9 9 -9 8 0 12 4 9 9 -3 4 -7 8 -9 8 -2 0 -6 -4
-9 -8z"/>
<path d="M6496 5067 c3 -10 9 -15 12 -12 3 3 0 11 -7 18 -10 9 -11 8 -5 -6z"/>
<path d="M6464 5045 c-12 -9 -14 -14 -6 -15 7 0 11 -4 8 -9 -3 -5 1 -14 9 -21
8 -7 12 -16 9 -21 -3 -5 0 -8 8 -7 7 2 13 -4 13 -12 0 -8 4 -21 8 -27 5 -7 6
-17 2 -22 -7 -12 13 -25 39 -26 18 -2 17 0 -3 17 -19 15 -21 21 -11 33 10 12
9 16 -4 21 -9 3 -13 11 -9 17 3 5 2 8 -3 5 -5 -3 -14 0 -21 7 -7 8 -9 15 -5
18 4 2 2 2 -5 1 -7 -2 -15 1 -18 6 -4 6 1 10 9 10 8 0 17 4 20 9 4 5 -4 7 -16
3 -21 -5 -22 -4 -9 11 17 21 11 22 -15 2z m76 -99 c0 -11 -19 -15 -25 -6 -3 5
1 10 9 10 9 0 16 -2 16 -4z"/>
<path d="M451 5033 c7 -12 15 -20 18 -17 3 2 -3 12 -13 22 -17 16 -18 16 -5
-5z"/>
<path d="M491 5046 c2 -2 15 -9 29 -15 24 -11 24 -11 6 3 -16 13 -49 24 -35
12z"/>
<path d="M435 4940 c3 -5 8 -10 11 -10 2 0 4 5 4 10 0 6 -5 10 -11 10 -5 0 -7
-4 -4 -10z"/>
<path d="M399 4893 c-13 -16 -12 -17 4 -4 9 7 17 15 17 17 0 8 -8 3 -21 -13z"/>
<path d="M438 4903 c6 -3 12 -14 12 -24 0 -12 4 -17 11 -14 6 4 8 10 5 13 -3
3 -2 10 3 16 6 7 1 11 -17 12 -15 1 -21 -1 -14 -3z"/>
<path d="M419 4873 c-13 -16 -12 -17 4 -4 9 7 17 15 17 17 0 8 -8 3 -21 -13z"/>
<path d="M356 4793 c-6 -14 -5 -15 5 -6 7 7 10 15 7 18 -3 3 -9 -2 -12 -12z"/>
<path d="M354 4693 c15 -4 16 -7 5 -14 -8 -5 -9 -9 -3 -9 6 0 16 6 22 13 8 10
5 13 -16 14 -17 0 -20 -1 -8 -4z"/>
<path d="M315 4662 c4 -4 12 -7 18 -7 5 0 12 -5 14 -12 3 -7 -4 -10 -19 -7
l-23 5 23 -10 c12 -6 25 -12 29 -13 3 -2 7 7 8 19 1 12 -1 22 -4 21 -3 0 -8 1
-11 2 -16 6 -41 7 -35 2z"/>
<path d="M6697 4595 c-4 -8 -3 -16 1 -19 4 -3 9 4 9 15 2 23 -3 25 -10 4z"/>
<path d="M282 4526 c16 -32 21 -34 13 -6 -7 22 -6 23 8 11 9 -7 14 -18 10 -24
-4 -6 -1 -7 6 -3 15 10 -11 43 -34 43 -11 0 -12 -5 -3 -21z"/>
<path d="M285 4473 c4 -14 2 -23 -4 -23 -6 0 -11 -4 -11 -9 0 -5 8 -8 18 -6
17 3 18 18 1 45 -8 11 -8 10 -4 -7z"/>
<path d="M269 4408 c-1 -7 -1 -17 0 -21 1 -5 -8 -6 -19 -2 -11 4 -20 2 -20 -4
0 -6 3 -10 8 -10 19 3 33 -2 27 -10 -3 -5 -1 -13 5 -16 6 -4 10 -3 9 2 -1 4 0
10 1 13 7 16 6 60 -2 60 -4 0 -9 -6 -9 -12z"/>
<path d="M6751 4393 c7 -12 15 -20 18 -17 3 2 -3 12 -13 22 -17 16 -18 16 -5
-5z"/>
<path d="M6755 4349 c-4 -6 -14 -8 -23 -4 -14 5 -14 3 1 -13 20 -22 22 -36 5
-26 -7 4 -2 -6 12 -22 14 -16 26 -31 28 -33 1 -2 2 1 2 7 0 6 -6 17 -12 24
-15 15 -23 62 -10 54 5 -3 9 1 9 9 0 18 -3 19 -12 4z"/>
<path d="M6776 4313 c-6 -14 -5 -15 5 -6 7 7 10 15 7 18 -3 3 -9 -2 -12 -12z"/>
<path d="M200 4215 c0 -6 6 -17 13 -24 10 -12 8 -13 -8 -7 l-20 6 20 -15 c11
-9 19 -18 18 -20 -2 -3 0 -5 5 -5 4 0 7 8 7 18 0 9 4 22 8 29 4 6 3 14 -2 17
-5 4 -13 1 -17 -5 -4 -8 -9 -7 -15 2 -5 8 -9 9 -9 4z"/>
<path d="M180 4160 c0 -5 5 -10 11 -10 5 0 7 5 4 10 -3 6 -8 10 -11 10 -2 0
-4 -4 -4 -10z"/>
<path d="M6773 4153 c0 -7 4 -13 8 -13 4 0 9 6 12 13 3 8 0 14 -7 14 -7 0 -13
-6 -13 -14z"/>
<path d="M6792 4124 c-9 -19 -9 -24 0 -18 8 5 9 2 3 -12 -12 -31 -11 -77 3
-82 10 -3 11 22 2 48 -2 3 -1 10 0 15 4 17 9 75 6 75 -2 0 -8 -12 -14 -26z"/>
<path d="M207 4101 l2 -36 -20 25 -20 25 12 -27 c7 -16 16 -28 20 -28 21 0 35
66 16 73 -10 4 -12 -5 -10 -32z"/>
<path d="M6814 4079 c-3 -6 -3 -13 0 -16 3 -4 6 -1 6 5 0 6 7 9 15 6 8 -4 15
-4 15 -1 0 11 -30 16 -36 6z"/>
<path d="M156 4062 c-3 -5 1 -9 9 -9 8 0 12 4 9 9 -3 4 -7 8 -9 8 -2 0 -6 -4
-9 -8z"/>
<path d="M160 4010 c-6 -11 -8 -20 -6 -20 3 0 10 9 16 20 6 11 8 20 6 20 -3 0
-10 -9 -16 -20z"/>
<path d="M6796 3973 c-3 -3 -2 -11 2 -17 4 -6 7 -20 7 -30 0 -27 18 -30 33 -6
10 16 10 20 0 18 -7 -2 -12 4 -10 13 2 17 -21 33 -32 22z m29 -42 c3 -5 2 -12
-3 -15 -5 -3 -9 1 -9 9 0 17 3 19 12 6z"/>
<path d="M170 3899 c0 -5 -6 -7 -12 -3 -9 5 -9 3 1 -9 15 -19 33 -13 24 8 -6
17 -13 20 -13 4z"/>
<path d="M109 3883 c-13 -16 -12 -17 4 -4 9 7 17 15 17 17 0 8 -8 3 -21 -13z"/>
<path d="M6813 3874 c0 -7 7 -10 15 -6 11 4 10 -2 -4 -24 -13 -19 -14 -25 -5
-19 11 6 13 4 8 -8 -5 -14 -3 -15 14 -4 16 10 17 13 4 15 -16 4 -19 14 -8 26
14 14 10 35 -6 33 -10 0 -18 -6 -18 -13z"/>
<path d="M130 3859 c0 -5 5 -7 10 -4 6 3 10 8 10 11 0 2 -4 4 -10 4 -5 0 -10
-5 -10 -11z"/>
<path d="M6866 3682 c-3 -5 1 -9 9 -9 8 0 12 4 9 9 -3 4 -7 8 -9 8 -2 0 -6 -4
-9 -8z"/>
<path d="M6876 3647 c3 -10 9 -15 12 -12 3 3 0 11 -7 18 -10 9 -11 8 -5 -6z"/>
<path d="M6864 3588 c0 -10 1 -18 3 -18 1 0 7 8 12 18 7 13 6 19 -2 19 -7 0
-13 -9 -13 -19z"/>
<path d="M138 3569 c6 -9 8 -20 4 -24 -4 -5 -1 -5 6 -1 6 4 12 2 12 -3 0 -6
-4 -11 -10 -11 -5 0 -10 -4 -10 -9 0 -7 14 -8 38 -2 1 1 -2 9 -7 19 -7 13 -6
23 2 32 10 12 9 12 -4 2 -12 -9 -19 -9 -29 1 -12 10 -12 9 -2 -4z"/>
<path d="M6827 3568 c11 -15 11 -28 0 -45 -11 -17 9 -25 22 -9 8 9 8 16 2 20
-6 4 -8 13 -5 20 3 7 -2 16 -12 20 -12 5 -14 3 -7 -6z"/>
<path d="M115 3551 c-3 -5 -2 -12 3 -15 5 -3 9 1 9 9 0 17 -3 19 -12 6z"/>
<path d="M6868 3543 c7 -3 16 -2 19 1 4 3 -2 6 -13 5 -11 0 -14 -3 -6 -6z"/>
<path d="M117 3453 c3 -7 6 -13 8 -13 2 0 5 6 8 13 3 8 -1 14 -8 14 -7 0 -11
-6 -8 -14z"/>
<path d="M155 3453 c-15 -18 -20 -33 -10 -33 3 0 4 2 3 4 -2 2 6 13 16 25 11
12 16 21 12 21 -3 0 -13 -8 -21 -17z"/>
<path d="M6826 3462 c-2 -4 -1 -14 4 -22 7 -11 9 -9 7 8 -1 24 -3 26 -11 14z"/>
<path d="M6896 3462 c-3 -5 1 -9 9 -9 8 0 12 4 9 9 -3 4 -7 8 -9 8 -2 0 -6 -4
-9 -8z"/>
<path d="M6830 3375 c-11 -13 -10 -14 4 -9 9 3 16 10 16 15 0 13 -6 11 -20 -6z"/>
<path d="M6879 3353 c-13 -16 -12 -17 4 -4 16 13 21 21 13 21 -2 0 -10 -8 -17
-17z"/>
<path d="M125 3339 c-4 -6 -5 -12 -2 -15 2 -3 7 2 10 11 7 17 1 20 -8 4z"/>
<path d="M6838 3318 c2 -10 6 -18 7 -18 1 0 5 8 7 18 3 11 0 19 -7 19 -7 0
-10 -8 -7 -19z"/>
<path d="M124 3279 c-4 -7 -3 -9 4 -5 12 7 35 -27 25 -38 -3 -3 -1 -6 6 -6 7
0 9 -5 5 -12 -4 -7 -3 -10 1 -5 11 10 14 67 3 61 -5 -3 -15 -1 -23 6 -10 8
-15 8 -21 -1z"/>
<path d="M6829 3288 c-7 -15 -4 -66 3 -62 5 3 7 12 4 20 -3 7 -1 16 4 19 13 8
13 25 0 25 -5 0 -11 -1 -11 -2z"/>
<path d="M6855 3260 c-3 -6 1 -7 9 -4 18 7 21 14 7 14 -6 0 -13 -4 -16 -10z"/>
<path d="M6850 3231 c0 -6 4 -13 10 -16 6 -3 7 1 4 9 -7 18 -14 21 -14 7z"/>
<path d="M138 3203 c5 -21 7 -23 10 -9 2 10 0 22 -6 28 -6 6 -7 0 -4 -19z"/>
<path d="M6825 3197 c-5 -7 -10 -21 -11 -32 -1 -16 6 -21 25 -22 23 -2 24 -1
6 7 -13 6 -15 9 -5 9 13 1 13 3 1 10 -12 8 -12 12 -2 25 8 9 10 16 5 16 -5 -1
-13 -6 -19 -13z"/>
<path d="M6896 3193 c-6 -14 -5 -15 5 -6 7 7 10 15 7 18 -3 3 -9 -2 -12 -12z"/>
<path d="M167 3194 c-3 -3 -3 -13 0 -22 4 -9 2 -13 -4 -9 -6 4 -9 -5 -8 -21 1
-15 -6 -32 -14 -39 -14 -10 -12 -11 7 -6 13 3 21 11 18 18 -2 7 1 18 7 24 14
14 19 48 8 55 -4 3 -11 3 -14 0z"/>
<path d="M6826 2983 c-6 -14 -5 -15 5 -6 7 7 10 15 7 18 -3 3 -9 -2 -12 -12z"/>
<path d="M155 2980 c3 -5 8 -10 11 -10 2 0 4 5 4 10 0 6 -5 10 -11 10 -5 0 -7
-4 -4 -10z"/>
<path d="M170 2920 c0 -5 5 -10 10 -10 6 0 10 5 10 10 0 6 -4 10 -10 10 -5 0
-10 -4 -10 -10z"/>
<path d="M6773 2876 c0 -8 8 -11 20 -8 14 4 16 7 5 13 -19 12 -25 11 -25 -5z"/>
<path d="M210 2869 c0 -5 -6 -7 -12 -3 -7 4 -10 4 -6 -1 4 -4 2 -15 -5 -23 -7
-9 -7 -13 -1 -9 6 4 19 -2 29 -13 19 -21 7 -28 -13 -8 -7 7 -12 9 -12 6 0 -4
13 -16 28 -27 27 -19 28 -19 29 -1 1 10 -5 21 -13 24 -7 3 -12 11 -10 18 1 7
1 10 -1 5 -3 -4 -9 -4 -15 -1 -5 3 -2 14 8 25 10 11 12 19 6 19 -7 0 -12 -5
-12 -11z"/>
<path d="M6816 2847 c3 -10 9 -15 12 -12 3 3 0 11 -7 18 -10 9 -11 8 -5 -6z"/>
<path d="M6772 2796 c-12 -6 -20 -16 -18 -22 2 -6 -1 -17 -7 -24 -7 -7 0 -5
14 6 15 10 25 22 23 26 -3 4 4 11 13 17 24 14 4 12 -25 -3z"/>
<path d="M197 2766 c-3 -8 2 -20 11 -27 14 -11 15 -11 5 0 -6 7 -9 20 -6 27 3
8 3 14 0 14 -3 0 -7 -6 -10 -14z"/>
<path d="M226 2755 c4 -8 11 -15 16 -15 6 0 5 6 -2 15 -7 8 -14 15 -16 15 -2
0 -1 -7 2 -15z"/>
<path d="M6790 2751 c0 -6 4 -13 10 -16 6 -3 7 1 4 9 -7 18 -14 21 -14 7z"/>
<path d="M232 2721 c4 -13 18 -16 19 -4 0 4 -5 9 -11 12 -7 2 -11 -2 -8 -8z"/>
<path d="M255 2692 c-5 -4 -11 -16 -12 -27 -1 -11 0 -14 3 -7 3 6 10 9 15 6 6
-3 5 -11 -2 -20 -6 -8 -10 -16 -8 -17 2 -1 15 -11 29 -22 19 -16 22 -16 11 -2
-7 9 -10 17 -6 17 4 0 2 7 -5 15 -7 8 -9 15 -5 15 4 0 2 7 -5 15 -6 8 -9 19
-5 25 7 12 4 13 -10 2z"/>
<path d="M6750 2663 c0 -6 8 -17 18 -24 16 -13 16 -13 2 6 -8 11 -16 22 -17
24 -2 2 -3 0 -3 -6z"/>
<path d="M6725 2640 c3 -5 2 -10 -3 -10 -5 0 -9 -7 -9 -15 0 -8 3 -13 5 -10 3
3 12 -1 21 -8 14 -10 14 -10 3 4 -7 9 -10 24 -6 33 3 9 1 16 -6 16 -6 0 -8 -4
-5 -10z"/>
<path d="M245 2600 c-3 -5 -1 -10 4 -10 6 0 11 5 11 10 0 6 -2 10 -4 10 -3 0
-8 -4 -11 -10z"/>
<path d="M6728 2563 c5 -21 7 -23 10 -9 2 10 0 22 -6 28 -6 6 -7 0 -4 -19z"/>
<path d="M235 2520 c3 -5 8 -10 11 -10 2 0 4 5 4 10 0 6 -5 10 -11 10 -5 0 -7
-4 -4 -10z"/>
<path d="M267 2519 c7 -7 15 -10 18 -7 3 3 -2 9 -12 12 -14 6 -15 5 -6 -5z"/>
<path d="M6690 2480 c0 -5 5 -10 11 -10 5 0 7 5 4 10 -3 6 -8 10 -11 10 -2 0
-4 -4 -4 -10z"/>
<path d="M6669 2475 c-1 -3 -2 -9 -3 -14 0 -5 -4 -13 -8 -16 -7 -7 18 -65 28
-65 2 0 0 10 -7 21 -9 17 -8 23 2 30 11 7 11 9 -1 10 -10 0 -8 3 5 9 18 8 18
9 2 9 -10 1 -15 6 -12 11 3 6 4 10 1 10 -3 0 -7 -2 -7 -5z"/>
<path d="M6695 2420 c-3 -5 -1 -10 4 -10 6 0 11 5 11 10 0 6 -2 10 -4 10 -3 0
-8 -4 -11 -10z"/>
<path d="M296 2382 c-3 -5 1 -9 9 -9 8 0 12 4 9 9 -3 4 -7 8 -9 8 -2 0 -6 -4
-9 -8z"/>
<path d="M6642 2355 c-21 -21 -21 -24 -7 -39 9 -9 19 -16 23 -16 3 0 1 5 -6
12 -13 13 3 52 18 43 6 -3 7 1 4 9 -3 9 -7 16 -8 15 0 -1 -11 -11 -24 -24z"/>
<path d="M310 2356 c0 -2 8 -10 18 -17 15 -13 16 -12 3 4 -13 16 -21 21 -21
13z"/>
<path d="M6569 2194 c-17 -21 9 -27 30 -7 20 19 20 19 0 19 -11 0 -25 -6 -30
-12z"/>
<path d="M6596 2153 c-6 -14 -5 -15 5 -6 7 7 10 15 7 18 -3 3 -9 -2 -12 -12z"/>
<path d="M436 2085 c4 -8 8 -15 10 -15 2 0 4 7 4 15 0 8 -4 15 -10 15 -5 0 -7
-7 -4 -15z"/>
<path d="M6491 2023 c3 -18 -1 -33 -8 -30 -5 1 -8 -1 -8 -4 0 -3 -6 -13 -14
-22 -7 -10 -10 -17 -7 -17 4 0 -2 -13 -13 -29 -17 -24 -18 -31 -7 -40 10 -9
15 -8 19 3 4 10 1 13 -9 9 -14 -5 -14 -3 -3 16 8 11 17 21 22 21 4 0 5 -4 2
-10 -3 -6 1 -7 10 -3 10 3 12 8 6 12 -14 9 -7 42 12 56 9 7 14 15 10 18 -3 4
2 7 13 7 16 0 17 2 4 10 -18 12 -30 13 -29 3z"/>
<path d="M475 2010 c-3 -5 -1 -10 4 -10 6 0 11 5 11 10 0 6 -2 10 -4 10 -3 0
-8 -4 -11 -10z"/>
<path d="M6511 1964 c0 -11 3 -14 6 -6 3 7 2 16 -1 19 -3 4 -6 -2 -5 -13z"/>
<path d="M6480 1900 c-9 -6 -10 -10 -3 -10 6 0 15 5 18 10 8 12 4 12 -15 0z"/>
<path d="M535 1871 c-3 -5 -2 -12 3 -15 5 -3 9 1 9 9 0 17 -3 19 -12 6z"/>
<path d="M566 1822 c-3 -5 1 -9 9 -9 8 0 12 4 9 9 -3 4 -7 8 -9 8 -2 0 -6 -4
-9 -8z"/>
<path d="M605 1783 c-12 -9 -14 -13 -5 -11 17 6 62 -50 53 -65 -3 -6 -2 -8 3
-5 5 3 15 0 22 -8 11 -12 10 -14 -5 -15 -14 0 -15 -2 -3 -6 8 -3 18 -10 21
-16 4 -5 12 -6 19 -2 8 5 7 12 -6 26 -9 10 -14 19 -10 19 4 0 -5 16 -20 35
-14 19 -31 32 -37 28 -6 -4 -8 0 -4 10 9 23 -5 28 -28 10z m76 -70 c13 -16 12
-17 -3 -4 -10 7 -18 15 -18 17 0 8 8 3 21 -13z"/>
<path d="M6400 1780 c-8 -5 -12 -11 -10 -14 3 -2 14 2 24 10 22 15 10 19 -14
4z"/>
<path d="M613 1743 c4 -3 1 -13 -6 -22 -11 -14 -10 -14 5 -2 16 12 16 31 1 31
-4 0 -3 -3 0 -7z"/>
<path d="M630 1679 c0 -5 5 -7 10 -4 6 3 10 8 10 11 0 2 -4 4 -10 4 -5 0 -10
-5 -10 -11z"/>
<path d="M696 1628 c3 -5 10 -6 15 -3 13 9 11 12 -6 12 -8 0 -12 -4 -9 -9z"/>
<path d="M6295 1619 c-4 -6 -5 -12 -2 -15 2 -3 7 2 10 11 7 17 1 20 -8 4z"/>
<path d="M776 1567 c3 -10 9 -15 12 -12 3 3 0 11 -7 18 -10 9 -11 8 -5 -6z"/>
<path d="M715 1541 c-3 -5 -2 -12 3 -15 5 -3 9 1 9 9 0 17 -3 19 -12 6z"/>
<path d="M766 1525 c-9 -26 -7 -32 5 -12 6 10 9 21 6 23 -2 3 -7 -2 -11 -11z"/>
<path d="M6255 1520 c3 -5 8 -10 11 -10 2 0 4 5 4 10 0 6 -5 10 -11 10 -5 0
-7 -4 -4 -10z"/>
<path d="M6216 1502 c-2 -4 -1 -14 4 -22 7 -11 9 -9 7 8 -1 24 -3 26 -11 14z"/>
<path d="M822 1491 c-8 -4 -14 -12 -15 -17 -1 -5 -6 -8 -10 -6 -5 1 -6 -2 -2
-7 9 -15 35 -1 35 18 0 14 2 14 10 1 5 -9 5 -19 -2 -27 -6 -8 -9 -15 -7 -18 3
-2 10 4 16 14 15 24 -5 55 -25 42z"/>
<path d="M6151 1482 c-10 -19 -6 -32 11 -32 5 0 6 10 3 23 -6 18 -5 20 6 10
16 -16 29 -17 29 -1 0 6 -3 8 -7 5 -3 -4 -12 -2 -19 4 -9 8 -15 5 -23 -9z"/>
<path d="M6186 1438 c3 -5 10 -6 15 -3 13 9 11 12 -6 12 -8 0 -12 -4 -9 -9z"/>
<path d="M878 1383 c7 -3 16 -2 19 1 4 3 -2 6 -13 5 -11 0 -14 -3 -6 -6z"/>
<path d="M6059 1369 c-8 -5 -10 -9 -6 -9 4 0 -8 -16 -28 -37 -37 -38 -41 -48
-26 -58 12 -7 33 29 24 39 -3 3 -1 6 6 6 7 0 9 5 6 10 -3 6 -1 10 4 10 6 0 11
-4 11 -10 0 -5 5 -10 11 -10 8 0 8 5 -1 15 -10 12 -9 16 4 21 9 3 13 10 10 15
-3 5 0 9 5 9 6 0 11 -4 11 -10 0 -5 4 -10 8 -10 5 0 9 6 9 13 0 15 -27 19 -48
6z m-46 -84 c-3 -9 -8 -14 -10 -11 -3 3 -2 9 2 15 9 16 15 13 8 -4z"/>
<path d="M6106 1318 c3 -5 10 -6 15 -3 13 9 11 12 -6 12 -8 0 -12 -4 -9 -9z"/>
<path d="M990 1296 c0 -10 -4 -14 -10 -11 -6 4 -7 -1 -3 -11 4 -11 8 -13 11
-6 2 7 8 10 12 7 16 -10 20 13 5 25 -12 10 -15 9 -15 -4z"/>
<path d="M5960 1245 c-7 -8 -17 -12 -24 -8 -6 4 -5 -1 3 -10 17 -21 35 -22 28
-2 -4 8 -2 17 3 20 4 3 10 -1 13 -7 3 -10 8 -10 18 1 9 9 9 11 2 7 -7 -4 -13
-2 -13 3 0 16 -16 13 -30 -4z"/>
<path d="M1060 1205 c-12 -15 -4 -20 23 -16 10 1 9 -6 -4 -32 -9 -20 -9 -20 4
-5 18 22 30 12 16 -14 -6 -11 -8 -22 -6 -25 3 -2 8 5 12 16 3 12 10 19 15 16
5 -3 11 -2 14 3 3 5 -10 23 -28 40 -29 27 -36 30 -46 17z m61 -42 c13 -16 12
-17 -3 -4 -10 7 -18 15 -18 17 0 8 8 3 21 -13z"/>
<path d="M5917 1197 c-15 -11 -16 -15 -4 -31 11 -15 16 -16 22 -6 6 9 4 11 -5
5 -10 -6 -12 -4 -7 9 4 10 7 20 7 22 0 3 5 2 12 -2 7 -4 8 -3 4 4 -9 15 -8 15
-29 -1z"/>
<path d="M5975 1199 c-3 -4 2 -6 10 -5 21 3 28 13 10 13 -9 0 -18 -4 -20 -8z"/>
<path d="M1046 1158 c3 -5 10 -6 15 -3 13 9 11 12 -6 12 -8 0 -12 -4 -9 -9z"/>
<path d="M5871 1133 c7 -12 15 -20 18 -17 3 2 -3 12 -13 22 -17 16 -18 16 -5
-5z"/>
<path d="M1123 1124 c-17 -14 -16 -14 5 -4 18 9 22 8 22 -5 0 -8 4 -15 8 -15
13 0 10 29 -4 34 -6 2 -20 -2 -31 -10z"/>
<path d="M1176 1093 c-3 -3 -6 -11 -6 -17 0 -6 5 -4 10 4 5 8 10 10 10 4 0 -6
7 -11 15 -11 20 0 19 4 -4 16 -10 6 -21 7 -25 4z"/>
<path d="M5860 1085 c0 -2 6 -8 13 -14 10 -8 14 -7 14 2 0 8 -6 14 -14 14 -7
0 -13 -1 -13 -2z"/>
<path d="M5773 1064 c4 -7 0 -17 -8 -24 -17 -14 -20 -30 -4 -30 5 0 7 5 3 12
-5 7 -2 9 9 5 12 -4 14 -2 10 10 -4 10 -2 14 5 9 6 -3 14 -1 18 6 4 7 4 10 -1
6 -4 -4 -15 -2 -23 5 -10 7 -13 8 -9 1z"/>
<path d="M1261 1008 c-7 -11 -8 -17 -2 -13 6 3 11 1 11 -4 0 -18 -5 -26 -13
-23 -5 1 -6 -2 -2 -8 5 -8 11 -7 21 1 10 8 14 8 14 0 0 -6 6 -10 13 -8 6 1 11
-4 9 -11 -1 -8 2 -11 7 -8 5 4 11 3 14 -1 2 -5 2 -3 1 4 -2 7 1 15 6 18 9 6
15 -16 11 -38 -1 -5 3 -6 9 -2 5 3 10 2 10 -4 0 -5 -3 -11 -7 -14 -5 -2 -3 -3
4 -1 17 4 24 -8 12 -22 -7 -8 -7 -14 1 -19 6 -4 9 -1 8 7 -2 7 2 12 9 11 27
-5 18 28 -18 63 -21 21 -39 34 -39 29 0 -4 -10 0 -22 11 -12 10 -18 13 -14 7
4 -7 3 -13 -3 -13 -16 0 -33 38 -19 42 8 3 8 7 2 11 -5 3 -16 -3 -23 -15z
m129 -93 c13 -14 19 -25 14 -25 -8 1 -50 50 -41 50 2 0 14 -11 27 -25z"/>
<path d="M5657 957 c-11 -17 -12 -28 -5 -38 8 -11 9 -11 4 3 -3 10 -1 20 4 23
6 4 10 0 10 -7 0 -8 5 -5 11 5 17 30 -5 43 -24 14z"/>
<path d="M5695 941 c-3 -5 -2 -12 3 -15 5 -3 9 1 9 9 0 17 -3 19 -12 6z"/>
<path d="M5596 873 c-6 -14 -5 -15 5 -6 7 7 10 15 7 18 -3 3 -9 -2 -12 -12z"/>
<path d="M5635 880 c-3 -5 -1 -10 4 -10 6 0 11 5 11 10 0 6 -2 10 -4 10 -3 0
-8 -4 -11 -10z"/>
<path d="M5590 840 c0 -5 5 -10 11 -10 5 0 7 5 4 10 -3 6 -8 10 -11 10 -2 0
-4 -4 -4 -10z"/>
<path d="M5492 827 c-5 -6 -7 -20 -3 -29 5 -15 8 -13 18 7 12 27 2 43 -15 22z"/>
<path d="M5515 799 c-3 -4 2 -6 10 -5 21 3 28 13 10 13 -9 0 -18 -4 -20 -8z"/>
<path d="M5446 738 c3 -5 10 -6 15 -3 13 9 11 12 -6 12 -8 0 -12 -4 -9 -9z"/>
<path d="M5300 640 c-9 -6 -10 -10 -3 -10 6 0 15 5 18 10 8 12 4 12 -15 0z"/>
<path d="M1715 600 c3 -5 8 -10 11 -10 2 0 4 5 4 10 0 6 -5 10 -11 10 -5 0 -7
-4 -4 -10z"/>
<path d="M1820 565 c0 -2 6 -8 13 -14 10 -8 14 -7 14 2 0 8 -6 14 -14 14 -7 0
-13 -1 -13 -2z"/>
<path d="M1910 531 c0 -5 7 -12 16 -15 14 -5 15 -4 4 9 -14 17 -20 19 -20 6z"/>
<path d="M5136 522 c-3 -5 1 -9 9 -9 8 0 12 4 9 9 -3 4 -7 8 -9 8 -2 0 -6 -4
-9 -8z"/>
<path d="M4902 478 c-7 -7 -18 -13 -25 -13 -6 0 -16 -10 -22 -21 -6 -12 -17
-30 -25 -40 -14 -18 -14 -18 6 -1 11 9 23 14 26 11 3 -3 9 0 14 7 4 8 3 10 -4
5 -7 -4 -12 -1 -12 8 0 17 20 17 33 1 4 -6 7 -2 5 9 -2 10 3 21 11 24 10 3 11
0 5 -9 -6 -11 -5 -12 7 -2 8 7 26 10 40 7 l24 -6 -25 14 c-15 8 -28 10 -31 5
-4 -5 -8 -4 -10 2 -3 9 -8 8 -17 -1z"/>
<path d="M4990 481 c0 -6 4 -13 10 -16 6 -3 7 1 4 9 -7 18 -14 21 -14 7z"/>
<path d="M2163 445 c4 -5 1 -18 -7 -30 -12 -18 -12 -22 -1 -22 8 0 14 3 13 6
-2 20 3 31 12 26 6 -4 7 -11 4 -17 -5 -7 -2 -8 6 -3 10 6 12 3 7 -11 -6 -16
-5 -17 5 -4 7 8 22 16 33 18 l20 3 -20 -17 c-20 -16 -20 -16 4 -9 18 5 22 4
16 -5 -5 -9 -4 -11 3 -6 13 8 -1 45 -18 47 -13 2 -29 6 -35 9 -3 1 -8 3 -12 4
-5 1 -15 5 -23 10 -8 5 -12 5 -7 1z"/>
<path d="M4737 388 c-16 -16 -21 -17 -35 -6 -15 12 -16 11 -3 -4 9 -13 18 -15
31 -8 9 5 20 7 24 5 3 -3 4 -2 1 2 -3 3 0 12 6 20 18 21 -4 14 -24 -9z"/>
<path d="M2353 347 c0 -12 1 -16 4 -9 7 18 23 4 17 -16 -5 -14 -4 -14 4 -3 8
12 13 12 25 2 10 -8 17 -9 22 -1 3 5 11 10 17 10 6 0 5 -7 -3 -17 -12 -16 -12
-17 1 -7 8 6 24 8 34 4 14 -4 16 -9 8 -14 -7 -4 -16 -4 -22 -1 -6 3 -7 -1 -4
-10 6 -14 8 -14 25 1 19 17 17 40 -4 42 -37 3 -53 8 -59 17 -5 6 -8 5 -8 -3 0
-10 -8 -8 -28 7 l-28 19 -1 -21z"/>
<path d="M4501 324 c-1 -7 7 -20 17 -31 9 -10 14 -14 10 -9 -15 19 -8 27 15
15 22 -12 22 -12 2 8 -11 12 -23 16 -26 10 -4 -5 -9 -4 -12 4 -3 8 -6 9 -6 3z"/>
<path d="M4600 300 c-8 -5 -10 -10 -5 -10 6 0 17 5 25 10 8 5 11 10 5 10 -5 0
-17 -5 -25 -10z"/>
<path d="M2582 288 c-15 -15 -15 -28 0 -28 6 0 8 3 5 7 -4 3 -2 12 4 20 14 16
7 17 -9 1z"/>
<path d="M2699 238 c-6 -11 -8 -22 -6 -25 3 -2 8 5 12 16 6 20 8 20 31 5 23
-16 24 -15 17 1 -5 14 -3 16 8 10 8 -5 11 -4 6 1 -15 16 -58 11 -68 -8z"/>
<path d="M2595 240 c3 -5 8 -10 11 -10 2 0 4 5 4 10 0 6 -5 10 -11 10 -5 0 -7
-4 -4 -10z"/>
<path d="M4390 246 c0 -2 7 -7 16 -10 8 -3 12 -2 9 4 -6 10 -25 14 -25 6z"/>
<path d="M4146 232 c-3 -6 2 -16 14 -22 11 -6 18 -15 15 -20 -3 -5 -1 -11 4
-14 14 -9 8 18 -10 44 -10 16 -18 20 -23 12z"/>
<path d="M4355 220 c3 -5 8 -10 11 -10 2 0 4 5 4 10 0 6 -5 10 -11 10 -5 0 -7
-4 -4 -10z"/>
<path d="M2870 208 c0 -6 3 -8 7 -5 3 4 11 -1 18 -10 9 -13 14 -13 20 -3 5 8
4 11 -2 7 -6 -4 -13 0 -17 8 -6 18 -26 20 -26 3z"/>
<path d="M4044 209 c-2 -4 4 -13 15 -18 25 -14 31 -14 31 0 0 5 -5 7 -12 3 -7
-5 -9 -2 -6 8 6 15 -19 22 -28 7z"/>
<path d="M3964 199 c-2 -4 -17 -5 -34 -4 -24 2 -28 0 -21 -14 5 -9 7 -24 6
-34 -2 -9 1 -15 6 -11 5 3 6 10 3 16 -5 8 -1 9 12 5 18 -7 18 -6 2 7 -10 7
-18 16 -18 20 0 11 24 2 37 -14 11 -13 12 -12 6 5 -6 17 -4 18 8 8 12 -10 18
-10 27 -1 9 9 12 9 12 -2 0 -13 2 -13 10 0 5 8 10 20 10 25 0 6 -5 3 -10 -5
-6 -9 -10 -10 -10 -3 0 12 -38 14 -46 2z m36 -5 c0 -8 -19 -13 -24 -6 -3 5 1
9 9 9 8 0 15 -2 15 -3z"/>
<path d="M4205 200 c-3 -6 1 -7 9 -4 18 7 21 14 7 14 -6 0 -13 -4 -16 -10z"/>
<path d="M2870 180 c0 -5 5 -10 11 -10 5 0 7 5 4 10 -3 6 -8 10 -11 10 -2 0
-4 -4 -4 -10z"/>
<path d="M2933 183 c4 -3 1 -13 -6 -22 -11 -14 -10 -14 5 -2 16 12 16 31 1 31
-4 0 -3 -3 0 -7z"/>
<path d="M3090 182 c0 -11 6 -13 27 -11 4 0 10 -8 14 -18 6 -14 7 -12 6 9 -1
18 -5 24 -12 18 -7 -6 -16 -5 -23 2 -9 9 -12 9 -12 0z"/>
<path d="M3440 170 c-8 -5 -17 -7 -21 -4 -4 2 -10 0 -13 -5 -4 -5 -2 -12 3
-15 5 -4 12 -2 16 4 3 5 10 10 16 10 5 0 4 -9 -3 -19 -7 -11 -16 -17 -22 -14
-5 4 -6 1 -1 -7 6 -10 11 -10 20 3 7 9 15 15 18 12 4 -3 5 -2 2 2 -3 3 0 12 6
19 13 15 -2 26 -21 14z"/>
<path d="M3672 156 c15 -29 16 -30 16 -3 0 13 -6 24 -14 24 -10 0 -10 -5 -2
-21z"/>
<path d="M4030 169 c0 -5 5 -7 10 -4 6 3 10 8 10 11 0 2 -4 4 -10 4 -5 0 -10
-5 -10 -11z"/>
<path d="M3325 160 c-3 -5 -1 -10 4 -10 6 0 11 5 11 10 0 6 -2 10 -4 10 -3 0
-8 -4 -11 -10z"/>
<path d="M3748 158 c5 -5 16 -8 23 -6 8 3 3 7 -10 11 -17 4 -21 3 -13 -5z"/>
<path d="M3795 160 c-3 -5 -1 -10 4 -10 6 0 11 5 11 10 0 6 -2 10 -4 10 -3 0
-8 -4 -11 -10z"/>
<path d="M3088 153 c6 -2 9 -10 6 -15 -4 -7 -2 -8 5 -4 13 9 5 26 -12 25 -9 0
-8 -2 1 -6z"/>
<path d="M3710 153 c8 -3 22 -11 30 -17 13 -10 13 -9 1 7 -7 9 -21 17 -30 16
-13 0 -14 -1 -1 -6z"/>
<path d="M3026 138 c3 -5 10 -6 15 -3 13 9 11 12 -6 12 -8 0 -12 -4 -9 -9z"/>
<path d="M3188 143 c7 -3 16 -2 19 1 4 3 -2 6 -13 5 -11 0 -14 -3 -6 -6z"/>
<path d="M3470 140 c0 -6 4 -9 9 -6 5 4 12 1 14 -4 3 -6 4 -5 3 2 -3 15 -26
23 -26 8z"/>
<path d="M3335 129 c-4 -6 -5 -12 -2 -15 2 -3 7 2 10 11 7 17 1 20 -8 4z"/>
<path d="M3631 124 c0 -11 3 -14 6 -6 3 7 2 16 -1 19 -3 4 -6 -2 -5 -13z"/>
<path d="M3655 131 c-3 -5 -2 -12 3 -15 5 -3 9 1 9 9 0 17 -3 19 -12 6z"/>
</g>
</svg>
